%TF.GenerationSoftware,KiCad,Pcbnew,8.0.1*%
%TF.CreationDate,2025-06-29T19:13:09+00:00*%
%TF.ProjectId,Prezenter,5072657a-656e-4746-9572-2e6b69636164,rev?*%
%TF.SameCoordinates,Original*%
%TF.FileFunction,Paste,Top*%
%TF.FilePolarity,Positive*%
%FSLAX46Y46*%
G04 Gerber Fmt 4.6, Leading zero omitted, Abs format (unit mm)*
G04 Created by KiCad (PCBNEW 8.0.1) date 2025-06-29 19:13:09*
%MOMM*%
%LPD*%
G01*
G04 APERTURE LIST*
%ADD10R,0.900000X1.500000*%
%ADD11R,1.500000X0.900000*%
%ADD12R,1.050000X1.050000*%
G04 APERTURE END LIST*
D10*
%TO.C,U1*%
X186080000Y-165805000D03*
X187350000Y-165805000D03*
X188620000Y-165805000D03*
X189890000Y-165805000D03*
X191160000Y-165805000D03*
X192430000Y-165805000D03*
X193700000Y-165805000D03*
X194970000Y-165805000D03*
X196240000Y-165805000D03*
X197510000Y-165805000D03*
X198780000Y-165805000D03*
X200050000Y-165805000D03*
X201320000Y-165805000D03*
X202590000Y-165805000D03*
D11*
X203840000Y-162765000D03*
X203840000Y-161495000D03*
X203840000Y-160225000D03*
X203840000Y-158955000D03*
X203840000Y-157685000D03*
X203840000Y-156415000D03*
X203840000Y-155145000D03*
X203840000Y-153875000D03*
X203840000Y-152605000D03*
X203840000Y-151335000D03*
D10*
X202590000Y-148305000D03*
X201320000Y-148305000D03*
X200050000Y-148305000D03*
X198780000Y-148305000D03*
X197510000Y-148305000D03*
X196240000Y-148305000D03*
X194970000Y-148305000D03*
X193700000Y-148305000D03*
X192430000Y-148305000D03*
X191160000Y-148305000D03*
X189890000Y-148305000D03*
X188620000Y-148305000D03*
X187350000Y-148305000D03*
X186080000Y-148305000D03*
D12*
X191895000Y-159260000D03*
X193420000Y-159260000D03*
X194945000Y-159260000D03*
X191895000Y-157735000D03*
X193420000Y-157735000D03*
X194945000Y-157735000D03*
X191895000Y-156210000D03*
X193420000Y-156210000D03*
X194945000Y-156210000D03*
%TD*%
M02*
