%TF.GenerationSoftware,KiCad,Pcbnew,8.0.1*%
%TF.CreationDate,2025-06-29T19:13:09+00:00*%
%TF.ProjectId,Prezenter,5072657a-656e-4746-9572-2e6b69636164,rev?*%
%TF.SameCoordinates,Original*%
%TF.FileFunction,Copper,L1,Top*%
%TF.FilePolarity,Positive*%
%FSLAX46Y46*%
G04 Gerber Fmt 4.6, Leading zero omitted, Abs format (unit mm)*
G04 Created by KiCad (PCBNEW 8.0.1) date 2025-06-29 19:13:09*
%MOMM*%
%LPD*%
G01*
G04 APERTURE LIST*
%TA.AperFunction,SMDPad,CuDef*%
%ADD10R,0.900000X1.500000*%
%TD*%
%TA.AperFunction,SMDPad,CuDef*%
%ADD11R,1.500000X0.900000*%
%TD*%
%TA.AperFunction,SMDPad,CuDef*%
%ADD12R,1.050000X1.050000*%
%TD*%
%TA.AperFunction,HeatsinkPad*%
%ADD13C,0.600000*%
%TD*%
%TA.AperFunction,SMDPad,CuDef*%
%ADD14R,4.200000X4.200000*%
%TD*%
%TA.AperFunction,ComponentPad*%
%ADD15C,2.200000*%
%TD*%
%TA.AperFunction,ComponentPad*%
%ADD16C,1.600000*%
%TD*%
%TA.AperFunction,ComponentPad*%
%ADD17O,1.600000X1.600000*%
%TD*%
%TA.AperFunction,ComponentPad*%
%ADD18R,1.700000X1.700000*%
%TD*%
%TA.AperFunction,ComponentPad*%
%ADD19O,1.700000X1.700000*%
%TD*%
%TA.AperFunction,ComponentPad*%
%ADD20R,1.800000X1.800000*%
%TD*%
%TA.AperFunction,ComponentPad*%
%ADD21C,1.800000*%
%TD*%
%TA.AperFunction,ViaPad*%
%ADD22C,0.600000*%
%TD*%
%TA.AperFunction,Conductor*%
%ADD23C,0.200000*%
%TD*%
G04 APERTURE END LIST*
D10*
%TO.P,U1,1,GND*%
%TO.N,GND*%
X186080000Y-165805000D03*
%TO.P,U1,2,VDD*%
%TO.N,VCC*%
X187350000Y-165805000D03*
%TO.P,U1,3,EN*%
%TO.N,/EN*%
X188620000Y-165805000D03*
%TO.P,U1,4,SENSOR_VP*%
%TO.N,unconnected-(U1-SENSOR_VP-Pad4)*%
X189890000Y-165805000D03*
%TO.P,U1,5,SENSOR_VN*%
%TO.N,unconnected-(U1-SENSOR_VN-Pad5)*%
X191160000Y-165805000D03*
%TO.P,U1,6,IO34*%
%TO.N,unconnected-(U1-IO34-Pad6)*%
X192430000Y-165805000D03*
%TO.P,U1,7,IO35*%
%TO.N,/D35*%
X193700000Y-165805000D03*
%TO.P,U1,8,IO32*%
%TO.N,unconnected-(U1-IO32-Pad8)*%
X194970000Y-165805000D03*
%TO.P,U1,9,IO33*%
%TO.N,unconnected-(U1-IO33-Pad9)*%
X196240000Y-165805000D03*
%TO.P,U1,10,IO25*%
%TO.N,/D25*%
X197510000Y-165805000D03*
%TO.P,U1,11,IO26*%
%TO.N,/D26*%
X198780000Y-165805000D03*
%TO.P,U1,12,IO27*%
%TO.N,unconnected-(U1-IO27-Pad12)*%
X200050000Y-165805000D03*
%TO.P,U1,13,IO14*%
%TO.N,/D14*%
X201320000Y-165805000D03*
%TO.P,U1,14,IO12*%
%TO.N,unconnected-(U1-IO12-Pad14)*%
X202590000Y-165805000D03*
D11*
%TO.P,U1,15,GND*%
%TO.N,GND*%
X203840000Y-162765000D03*
%TO.P,U1,16,IO13*%
%TO.N,unconnected-(U1-IO13-Pad16)*%
X203840000Y-161495000D03*
%TO.P,U1,17,SHD/SD2*%
%TO.N,unconnected-(U1-SHD{slash}SD2-Pad17)*%
X203840000Y-160225000D03*
%TO.P,U1,18,SWP/SD3*%
%TO.N,unconnected-(U1-SWP{slash}SD3-Pad18)*%
X203840000Y-158955000D03*
%TO.P,U1,19,SCS/CMD*%
%TO.N,unconnected-(U1-SCS{slash}CMD-Pad19)*%
X203840000Y-157685000D03*
%TO.P,U1,20,SCK/CLK*%
%TO.N,unconnected-(U1-SCK{slash}CLK-Pad20)*%
X203840000Y-156415000D03*
%TO.P,U1,21,SDO/SD0*%
%TO.N,unconnected-(U1-SDO{slash}SD0-Pad21)*%
X203840000Y-155145000D03*
%TO.P,U1,22,SDI/SD1*%
%TO.N,unconnected-(U1-SDI{slash}SD1-Pad22)*%
X203840000Y-153875000D03*
%TO.P,U1,23,IO15*%
%TO.N,unconnected-(U1-IO15-Pad23)*%
X203840000Y-152605000D03*
%TO.P,U1,24,IO2*%
%TO.N,unconnected-(U1-IO2-Pad24)*%
X203840000Y-151335000D03*
D10*
%TO.P,U1,25,IO0*%
%TO.N,/D0*%
X202590000Y-148305000D03*
%TO.P,U1,26,IO4*%
%TO.N,unconnected-(U1-IO4-Pad26)*%
X201320000Y-148305000D03*
%TO.P,U1,27,IO16*%
%TO.N,unconnected-(U1-IO16-Pad27)*%
X200050000Y-148305000D03*
%TO.P,U1,28,IO17*%
%TO.N,unconnected-(U1-IO17-Pad28)*%
X198780000Y-148305000D03*
%TO.P,U1,29,IO5*%
%TO.N,unconnected-(U1-IO5-Pad29)*%
X197510000Y-148305000D03*
%TO.P,U1,30,IO18*%
%TO.N,unconnected-(U1-IO18-Pad30)*%
X196240000Y-148305000D03*
%TO.P,U1,31,IO19*%
%TO.N,unconnected-(U1-IO19-Pad31)*%
X194970000Y-148305000D03*
%TO.P,U1,32,NC*%
%TO.N,unconnected-(U1-NC-Pad32)*%
X193700000Y-148305000D03*
%TO.P,U1,33,IO21*%
%TO.N,unconnected-(U1-IO21-Pad33)*%
X192430000Y-148305000D03*
%TO.P,U1,34,RXD0/IO3*%
%TO.N,/RX*%
X191160000Y-148305000D03*
%TO.P,U1,35,TXD0/IO1*%
%TO.N,/TX*%
X189890000Y-148305000D03*
%TO.P,U1,36,IO22*%
%TO.N,unconnected-(U1-IO22-Pad36)*%
X188620000Y-148305000D03*
%TO.P,U1,37,IO23*%
%TO.N,unconnected-(U1-IO23-Pad37)*%
X187350000Y-148305000D03*
%TO.P,U1,38,GND*%
%TO.N,GND*%
X186080000Y-148305000D03*
D12*
%TO.P,U1,39,GND*%
X191895000Y-159260000D03*
D13*
X192657500Y-159260000D03*
D12*
X193420000Y-159260000D03*
D13*
X194182500Y-159260000D03*
D12*
X194945000Y-159260000D03*
D13*
X191895000Y-158497500D03*
X193420000Y-158497500D03*
X194945000Y-158497500D03*
D12*
X191895000Y-157735000D03*
D13*
X192657500Y-157735000D03*
D12*
X193420000Y-157735000D03*
D14*
X193420000Y-157735000D03*
D13*
X194182500Y-157735000D03*
D12*
X194945000Y-157735000D03*
D13*
X191895000Y-156972500D03*
X193420000Y-156972500D03*
X194945000Y-156972500D03*
D12*
X191895000Y-156210000D03*
D13*
X192657500Y-156210000D03*
D12*
X193420000Y-156210000D03*
D13*
X194182500Y-156210000D03*
D12*
X194945000Y-156210000D03*
%TD*%
D15*
%TO.P,SW2,1,1*%
%TO.N,/D26*%
X182218000Y-134272000D03*
%TO.P,SW2,2,2*%
%TO.N,VCC*%
X182218000Y-139272000D03*
%TO.P,SW2,3,3*%
%TO.N,unconnected-(SW2-Pad3)*%
X194718000Y-134272000D03*
%TO.P,SW2,4,4*%
%TO.N,unconnected-(SW2-Pad4)*%
X194718000Y-139272000D03*
%TD*%
%TO.P,SW3,1,1*%
%TO.N,/D25*%
X198982000Y-134272000D03*
%TO.P,SW3,2,2*%
%TO.N,VCC*%
X198982000Y-139272000D03*
%TO.P,SW3,3,3*%
%TO.N,unconnected-(SW3-Pad3)*%
X211482000Y-134272000D03*
%TO.P,SW3,4,4*%
%TO.N,unconnected-(SW3-Pad4)*%
X211482000Y-139272000D03*
%TD*%
D16*
%TO.P,R2,1*%
%TO.N,/D35*%
X208280000Y-124460000D03*
D17*
%TO.P,R2,2*%
%TO.N,VCC*%
X208280000Y-114300000D03*
%TD*%
D15*
%TO.P,SW1,1,1*%
%TO.N,Net-(J1-Pin_2)*%
X190662000Y-112816000D03*
%TO.P,SW1,2,2*%
%TO.N,VCC*%
X190662000Y-117816000D03*
%TO.P,SW1,3,3*%
%TO.N,unconnected-(SW1-Pad3)*%
X203162000Y-112816000D03*
%TO.P,SW1,4,4*%
%TO.N,unconnected-(SW1-Pad4)*%
X203162000Y-117816000D03*
%TD*%
D16*
%TO.P,R1,1*%
%TO.N,/D26*%
X201930000Y-126365000D03*
D17*
%TO.P,R1,2*%
%TO.N,GND*%
X191770000Y-126365000D03*
%TD*%
D18*
%TO.P,J3,1,Pin_1*%
%TO.N,GND*%
X210820000Y-163830000D03*
D19*
%TO.P,J3,2,Pin_2*%
%TO.N,VCC*%
X210820000Y-166370000D03*
%TD*%
D16*
%TO.P,R4,1*%
%TO.N,/D25*%
X186690000Y-124460000D03*
D17*
%TO.P,R4,2*%
%TO.N,GND*%
X186690000Y-114300000D03*
%TD*%
D16*
%TO.P,R3,1*%
%TO.N,GND*%
X213360000Y-124460000D03*
D17*
%TO.P,R3,2*%
%TO.N,/D35*%
X213360000Y-114300000D03*
%TD*%
D16*
%TO.P,R5,1*%
%TO.N,Net-(D1-K)*%
X181610000Y-124460000D03*
D17*
%TO.P,R5,2*%
%TO.N,GND*%
X181610000Y-114300000D03*
%TD*%
D18*
%TO.P,J2,1,Pin_1*%
%TO.N,/TX*%
X210820000Y-149225000D03*
D19*
%TO.P,J2,2,Pin_2*%
%TO.N,/RX*%
X210820000Y-151765000D03*
%TO.P,J2,3,Pin_3*%
%TO.N,/EN*%
X210820000Y-154305000D03*
%TO.P,J2,4,Pin_4*%
%TO.N,/D0*%
X210820000Y-156845000D03*
%TD*%
D20*
%TO.P,D1,1,K*%
%TO.N,Net-(D1-K)*%
X210820000Y-107315000D03*
D21*
%TO.P,D1,2,A*%
%TO.N,/D14*%
X210820000Y-104775000D03*
%TD*%
D18*
%TO.P,J1,1,Pin_1*%
%TO.N,GND*%
X182245000Y-107950000D03*
D19*
%TO.P,J1,2,Pin_2*%
%TO.N,Net-(J1-Pin_2)*%
X182245000Y-105410000D03*
%TD*%
D22*
%TO.N,/D26*%
X194310000Y-126365000D03*
%TO.N,/D35*%
X194310000Y-164465000D03*
%TO.N,/D25*%
X196850000Y-163830000D03*
%TO.N,/D14*%
X201295000Y-162560000D03*
%TD*%
D23*
%TO.N,/TX*%
X189890000Y-147355000D02*
X189890000Y-148305000D01*
X205105000Y-146050000D02*
X191195000Y-146050000D01*
X208280000Y-149225000D02*
X205105000Y-146050000D01*
X191195000Y-146050000D02*
X189890000Y-147355000D01*
X210820000Y-149225000D02*
X208280000Y-149225000D01*
%TO.N,VCC*%
X183750000Y-140804000D02*
X182218000Y-139272000D01*
X187350000Y-161315000D02*
X183750000Y-157715000D01*
X183750000Y-157715000D02*
X183750000Y-140804000D01*
X187350000Y-165805000D02*
X187350000Y-161315000D01*
%TO.N,/D25*%
X198982000Y-128497000D02*
X198982000Y-134272000D01*
X194945000Y-124460000D02*
X198982000Y-128497000D01*
X186690000Y-124460000D02*
X194945000Y-124460000D01*
%TO.N,VCC*%
X200382000Y-137872000D02*
X198982000Y-139272000D01*
X190662000Y-117816000D02*
X200382000Y-127536000D01*
X200382000Y-127536000D02*
X200382000Y-137872000D01*
%TO.N,/D26*%
X186403000Y-134272000D02*
X194310000Y-126365000D01*
X182218000Y-134272000D02*
X186403000Y-134272000D01*
%TO.N,/D35*%
X193700000Y-165075000D02*
X194310000Y-164465000D01*
X193700000Y-165805000D02*
X193700000Y-165075000D01*
%TO.N,/D25*%
X197510000Y-164490000D02*
X196850000Y-163830000D01*
X197510000Y-165805000D02*
X197510000Y-164490000D01*
%TO.N,/D14*%
X201320000Y-162585000D02*
X201295000Y-162560000D01*
X201320000Y-165805000D02*
X201320000Y-162585000D01*
%TO.N,/D35*%
X210820000Y-116840000D02*
X213360000Y-114300000D01*
X210820000Y-121920000D02*
X210820000Y-116840000D01*
X208280000Y-124460000D02*
X210820000Y-121920000D01*
%TO.N,VCC*%
X192908000Y-115570000D02*
X190662000Y-117816000D01*
X207010000Y-115570000D02*
X192908000Y-115570000D01*
X208280000Y-114300000D02*
X207010000Y-115570000D01*
%TO.N,Net-(D1-K)*%
X198155000Y-107915000D02*
X210220000Y-107915000D01*
X186055000Y-120015000D02*
X198155000Y-107915000D01*
X183515000Y-120015000D02*
X186055000Y-120015000D01*
X210220000Y-107915000D02*
X210820000Y-107315000D01*
X181610000Y-124460000D02*
X181610000Y-121920000D01*
X181610000Y-121920000D02*
X183515000Y-120015000D01*
%TO.N,/D26*%
X197485000Y-163195000D02*
X198780000Y-164490000D01*
X189865000Y-163195000D02*
X197485000Y-163195000D01*
X184150000Y-157480000D02*
X189865000Y-163195000D01*
X184150000Y-136204000D02*
X184150000Y-157480000D01*
X198780000Y-164490000D02*
X198780000Y-165805000D01*
X182218000Y-134272000D02*
X184150000Y-136204000D01*
%TO.N,Net-(J1-Pin_2)*%
X189651000Y-112816000D02*
X190662000Y-112816000D01*
X182245000Y-105410000D02*
X189651000Y-112816000D01*
%TO.N,/EN*%
X188620000Y-166395000D02*
X188620000Y-165805000D01*
X189865000Y-167640000D02*
X188620000Y-166395000D01*
X207010000Y-167640000D02*
X189865000Y-167640000D01*
X208915000Y-165735000D02*
X207010000Y-167640000D01*
X208915000Y-162560000D02*
X208915000Y-165735000D01*
X212725000Y-158750000D02*
X208915000Y-162560000D01*
X212725000Y-156210000D02*
X212725000Y-158750000D01*
X210820000Y-154305000D02*
X212725000Y-156210000D01*
%TO.N,/D0*%
X208915000Y-152400000D02*
X204820000Y-148305000D01*
X204820000Y-148305000D02*
X202590000Y-148305000D01*
X208915000Y-154940000D02*
X208915000Y-152400000D01*
X210820000Y-156845000D02*
X208915000Y-154940000D01*
%TO.N,/RX*%
X191830000Y-146685000D02*
X191160000Y-147355000D01*
X209550000Y-151765000D02*
X204470000Y-146685000D01*
X204470000Y-146685000D02*
X191830000Y-146685000D01*
X191160000Y-147355000D02*
X191160000Y-148305000D01*
X210820000Y-151765000D02*
X209550000Y-151765000D01*
%TO.N,VCC*%
X187350000Y-166395000D02*
X187350000Y-165805000D01*
X189230000Y-168275000D02*
X187350000Y-166395000D01*
X208915000Y-168275000D02*
X189230000Y-168275000D01*
X210820000Y-166370000D02*
X208915000Y-168275000D01*
%TD*%
%TA.AperFunction,Conductor*%
%TO.N,GND*%
G36*
X188672539Y-102120185D02*
G01*
X188718294Y-102172989D01*
X188729500Y-102224500D01*
X188729500Y-107380891D01*
X188763608Y-107508187D01*
X188787692Y-107549901D01*
X188829500Y-107622314D01*
X188922686Y-107715500D01*
X189036814Y-107781392D01*
X189164108Y-107815500D01*
X189295892Y-107815500D01*
X197105903Y-107815500D01*
X197172942Y-107835185D01*
X197218697Y-107887989D01*
X197228641Y-107957147D01*
X197199616Y-108020703D01*
X197193584Y-108027181D01*
X192467662Y-112753101D01*
X192406339Y-112786586D01*
X192336647Y-112781602D01*
X192280714Y-112739730D01*
X192256363Y-112675151D01*
X192247683Y-112564852D01*
X192188873Y-112319889D01*
X192092466Y-112087141D01*
X192092466Y-112087140D01*
X191960839Y-111872346D01*
X191960838Y-111872343D01*
X191871740Y-111768023D01*
X191797224Y-111680776D01*
X191670571Y-111572604D01*
X191605656Y-111517161D01*
X191605653Y-111517160D01*
X191390859Y-111385533D01*
X191158110Y-111289126D01*
X190913151Y-111230317D01*
X190662000Y-111210551D01*
X190410848Y-111230317D01*
X190165889Y-111289126D01*
X189933140Y-111385533D01*
X189718346Y-111517160D01*
X189718344Y-111517161D01*
X189526688Y-111680850D01*
X189462927Y-111709420D01*
X189393841Y-111698982D01*
X189358476Y-111674240D01*
X183577766Y-105893531D01*
X183544281Y-105832208D01*
X183545672Y-105773757D01*
X183554419Y-105741112D01*
X183580063Y-105645408D01*
X183600659Y-105410000D01*
X183580063Y-105174592D01*
X183518903Y-104946337D01*
X183419035Y-104732171D01*
X183287069Y-104543702D01*
X183283494Y-104538597D01*
X183116402Y-104371506D01*
X183116395Y-104371501D01*
X182922834Y-104235967D01*
X182922830Y-104235965D01*
X182922828Y-104235964D01*
X182708663Y-104136097D01*
X182708659Y-104136096D01*
X182708655Y-104136094D01*
X182480413Y-104074938D01*
X182480403Y-104074936D01*
X182245001Y-104054341D01*
X182244999Y-104054341D01*
X182009596Y-104074936D01*
X182009586Y-104074938D01*
X181781344Y-104136094D01*
X181781335Y-104136098D01*
X181567171Y-104235964D01*
X181567169Y-104235965D01*
X181373597Y-104371505D01*
X181206505Y-104538597D01*
X181070965Y-104732169D01*
X181070964Y-104732171D01*
X180971098Y-104946335D01*
X180971094Y-104946344D01*
X180909938Y-105174586D01*
X180909936Y-105174596D01*
X180889341Y-105409999D01*
X180889341Y-105410000D01*
X180909936Y-105645403D01*
X180909938Y-105645413D01*
X180971094Y-105873655D01*
X180971096Y-105873659D01*
X180971097Y-105873663D01*
X181056800Y-106057454D01*
X181070965Y-106087830D01*
X181070967Y-106087834D01*
X181206501Y-106281395D01*
X181206506Y-106281402D01*
X181328818Y-106403714D01*
X181362303Y-106465037D01*
X181357319Y-106534729D01*
X181315447Y-106590662D01*
X181284471Y-106607577D01*
X181152912Y-106656646D01*
X181152906Y-106656649D01*
X181037812Y-106742809D01*
X181037809Y-106742812D01*
X180951649Y-106857906D01*
X180951645Y-106857913D01*
X180901403Y-106992620D01*
X180901401Y-106992627D01*
X180895000Y-107052155D01*
X180895000Y-107700000D01*
X181811988Y-107700000D01*
X181779075Y-107757007D01*
X181745000Y-107884174D01*
X181745000Y-108015826D01*
X181779075Y-108142993D01*
X181811988Y-108200000D01*
X180895000Y-108200000D01*
X180895000Y-108847844D01*
X180901401Y-108907372D01*
X180901403Y-108907379D01*
X180951645Y-109042086D01*
X180951649Y-109042093D01*
X181037809Y-109157187D01*
X181037812Y-109157190D01*
X181152906Y-109243350D01*
X181152913Y-109243354D01*
X181287620Y-109293596D01*
X181287627Y-109293598D01*
X181347155Y-109299999D01*
X181347172Y-109300000D01*
X181995000Y-109300000D01*
X181995000Y-108383012D01*
X182052007Y-108415925D01*
X182179174Y-108450000D01*
X182310826Y-108450000D01*
X182437993Y-108415925D01*
X182495000Y-108383012D01*
X182495000Y-109300000D01*
X183142828Y-109300000D01*
X183142844Y-109299999D01*
X183202372Y-109293598D01*
X183202379Y-109293596D01*
X183337086Y-109243354D01*
X183337093Y-109243350D01*
X183452187Y-109157190D01*
X183452190Y-109157187D01*
X183538350Y-109042093D01*
X183538354Y-109042086D01*
X183588596Y-108907379D01*
X183588598Y-108907372D01*
X183594999Y-108847844D01*
X183595000Y-108847827D01*
X183595000Y-108200000D01*
X182678012Y-108200000D01*
X182710925Y-108142993D01*
X182745000Y-108015826D01*
X182745000Y-107884174D01*
X182710925Y-107757007D01*
X182678012Y-107700000D01*
X183634403Y-107700000D01*
X183701442Y-107719685D01*
X183722084Y-107736319D01*
X189058981Y-113073217D01*
X189091874Y-113131951D01*
X189135126Y-113312110D01*
X189231533Y-113544859D01*
X189363160Y-113759653D01*
X189363161Y-113759656D01*
X189363164Y-113759659D01*
X189526776Y-113951224D01*
X189642427Y-114049999D01*
X189718343Y-114114838D01*
X189718346Y-114114839D01*
X189933140Y-114246466D01*
X190062379Y-114299998D01*
X190165889Y-114342873D01*
X190410852Y-114401683D01*
X190521151Y-114410363D01*
X190586437Y-114435247D01*
X190627908Y-114491478D01*
X190632395Y-114561204D01*
X190599101Y-114621662D01*
X185842584Y-119378181D01*
X185781261Y-119411666D01*
X185754903Y-119414500D01*
X183601669Y-119414500D01*
X183601653Y-119414499D01*
X183594057Y-119414499D01*
X183435943Y-119414499D01*
X183328587Y-119443265D01*
X183283210Y-119455424D01*
X183283209Y-119455425D01*
X183233096Y-119484359D01*
X183233095Y-119484360D01*
X183189689Y-119509420D01*
X183146285Y-119534479D01*
X183146282Y-119534481D01*
X181129481Y-121551282D01*
X181129479Y-121551285D01*
X181079361Y-121638094D01*
X181079359Y-121638096D01*
X181050425Y-121688209D01*
X181050424Y-121688210D01*
X181050423Y-121688215D01*
X181009499Y-121840943D01*
X181009499Y-121840945D01*
X181009499Y-122009046D01*
X181009500Y-122009059D01*
X181009500Y-123228306D01*
X180989815Y-123295345D01*
X180956623Y-123329881D01*
X180770859Y-123459953D01*
X180609954Y-123620858D01*
X180479432Y-123807265D01*
X180479431Y-123807267D01*
X180383261Y-124013502D01*
X180383258Y-124013511D01*
X180324366Y-124233302D01*
X180324364Y-124233313D01*
X180304532Y-124459998D01*
X180304532Y-124460001D01*
X180324364Y-124686686D01*
X180324366Y-124686697D01*
X180383258Y-124906488D01*
X180383261Y-124906497D01*
X180479431Y-125112732D01*
X180479432Y-125112734D01*
X180609954Y-125299141D01*
X180770858Y-125460045D01*
X180770861Y-125460047D01*
X180957266Y-125590568D01*
X181163504Y-125686739D01*
X181383308Y-125745635D01*
X181545230Y-125759801D01*
X181609998Y-125765468D01*
X181610000Y-125765468D01*
X181610002Y-125765468D01*
X181666673Y-125760509D01*
X181836692Y-125745635D01*
X182056496Y-125686739D01*
X182262734Y-125590568D01*
X182449139Y-125460047D01*
X182610047Y-125299139D01*
X182740568Y-125112734D01*
X182836739Y-124906496D01*
X182895635Y-124686692D01*
X182915468Y-124460000D01*
X182895635Y-124233308D01*
X182836739Y-124013504D01*
X182740568Y-123807266D01*
X182610047Y-123620861D01*
X182610045Y-123620858D01*
X182449140Y-123459953D01*
X182263377Y-123329881D01*
X182219752Y-123275304D01*
X182210500Y-123228306D01*
X182210500Y-122220097D01*
X182230185Y-122153058D01*
X182246819Y-122132416D01*
X183727416Y-120651819D01*
X183788739Y-120618334D01*
X183815097Y-120615500D01*
X185968331Y-120615500D01*
X185968347Y-120615501D01*
X185975943Y-120615501D01*
X186134054Y-120615501D01*
X186134057Y-120615501D01*
X186286785Y-120574577D01*
X186336904Y-120545639D01*
X186423716Y-120495520D01*
X186535520Y-120383716D01*
X186535520Y-120383714D01*
X186545728Y-120373507D01*
X186545730Y-120373504D01*
X188876342Y-118042891D01*
X188937663Y-118009408D01*
X189007355Y-118014392D01*
X189063288Y-118056264D01*
X189084595Y-118101627D01*
X189135126Y-118312110D01*
X189231533Y-118544859D01*
X189363160Y-118759653D01*
X189363161Y-118759656D01*
X189363164Y-118759659D01*
X189526776Y-118951224D01*
X189675066Y-119077875D01*
X189718343Y-119114838D01*
X189718346Y-119114839D01*
X189933140Y-119246466D01*
X190114077Y-119321412D01*
X190165889Y-119342873D01*
X190410852Y-119401683D01*
X190662000Y-119421449D01*
X190913148Y-119401683D01*
X191158111Y-119342873D01*
X191180960Y-119333408D01*
X191209923Y-119321412D01*
X191279392Y-119313943D01*
X191341871Y-119345218D01*
X191345057Y-119348292D01*
X199745181Y-127748416D01*
X199778666Y-127809739D01*
X199781500Y-127836097D01*
X199781500Y-128218746D01*
X199761815Y-128285785D01*
X199709011Y-128331540D01*
X199639853Y-128341484D01*
X199576297Y-128312459D01*
X199553591Y-128277128D01*
X199549740Y-128279353D01*
X199512639Y-128215095D01*
X199512637Y-128215092D01*
X199462520Y-128128284D01*
X199350716Y-128016480D01*
X199350715Y-128016479D01*
X199346385Y-128012149D01*
X199346374Y-128012139D01*
X195432590Y-124098355D01*
X195432588Y-124098352D01*
X195313717Y-123979481D01*
X195313716Y-123979480D01*
X195226904Y-123929360D01*
X195226904Y-123929359D01*
X195226900Y-123929358D01*
X195176785Y-123900423D01*
X195024057Y-123859499D01*
X194865943Y-123859499D01*
X194858347Y-123859499D01*
X194858331Y-123859500D01*
X187921692Y-123859500D01*
X187854653Y-123839815D01*
X187820119Y-123806625D01*
X187690047Y-123620861D01*
X187690045Y-123620858D01*
X187529141Y-123459954D01*
X187342734Y-123329432D01*
X187342732Y-123329431D01*
X187136497Y-123233261D01*
X187136488Y-123233258D01*
X186916697Y-123174366D01*
X186916693Y-123174365D01*
X186916692Y-123174365D01*
X186916691Y-123174364D01*
X186916686Y-123174364D01*
X186690002Y-123154532D01*
X186689998Y-123154532D01*
X186463313Y-123174364D01*
X186463302Y-123174366D01*
X186243511Y-123233258D01*
X186243502Y-123233261D01*
X186037267Y-123329431D01*
X186037265Y-123329432D01*
X185850858Y-123459954D01*
X185689954Y-123620858D01*
X185559432Y-123807265D01*
X185559431Y-123807267D01*
X185463261Y-124013502D01*
X185463258Y-124013511D01*
X185404366Y-124233302D01*
X185404364Y-124233313D01*
X185384532Y-124459998D01*
X185384532Y-124460001D01*
X185404364Y-124686686D01*
X185404366Y-124686697D01*
X185463258Y-124906488D01*
X185463261Y-124906497D01*
X185559431Y-125112732D01*
X185559432Y-125112734D01*
X185689954Y-125299141D01*
X185850858Y-125460045D01*
X185850861Y-125460047D01*
X186037266Y-125590568D01*
X186243504Y-125686739D01*
X186463308Y-125745635D01*
X186625230Y-125759801D01*
X186689998Y-125765468D01*
X186690000Y-125765468D01*
X186690002Y-125765468D01*
X186746673Y-125760509D01*
X186916692Y-125745635D01*
X187136496Y-125686739D01*
X187342734Y-125590568D01*
X187529139Y-125460047D01*
X187690047Y-125299139D01*
X187820118Y-125113375D01*
X187874693Y-125069752D01*
X187921692Y-125060500D01*
X190973260Y-125060500D01*
X191040299Y-125080185D01*
X191086054Y-125132989D01*
X191095998Y-125202147D01*
X191066973Y-125265703D01*
X191044384Y-125286075D01*
X190931179Y-125365342D01*
X190770342Y-125526179D01*
X190639865Y-125712517D01*
X190543734Y-125918673D01*
X190543730Y-125918682D01*
X190491127Y-126114999D01*
X190491128Y-126115000D01*
X191454314Y-126115000D01*
X191449920Y-126119394D01*
X191397259Y-126210606D01*
X191370000Y-126312339D01*
X191370000Y-126417661D01*
X191397259Y-126519394D01*
X191449920Y-126610606D01*
X191454314Y-126615000D01*
X190491128Y-126615000D01*
X190543730Y-126811317D01*
X190543734Y-126811326D01*
X190639865Y-127017482D01*
X190770342Y-127203820D01*
X190931179Y-127364657D01*
X191117517Y-127495134D01*
X191323673Y-127591265D01*
X191323682Y-127591269D01*
X191519999Y-127643872D01*
X191520000Y-127643871D01*
X191520000Y-126680686D01*
X191524394Y-126685080D01*
X191615606Y-126737741D01*
X191717339Y-126765000D01*
X191822661Y-126765000D01*
X191924394Y-126737741D01*
X192015606Y-126685080D01*
X192020000Y-126680686D01*
X192020000Y-127656262D01*
X192040629Y-127684515D01*
X192044783Y-127754261D01*
X192011620Y-127814142D01*
X186190584Y-133635181D01*
X186129261Y-133668666D01*
X186102903Y-133671500D01*
X183784488Y-133671500D01*
X183717449Y-133651815D01*
X183671694Y-133599011D01*
X183669927Y-133594952D01*
X183648467Y-133543143D01*
X183648466Y-133543141D01*
X183516839Y-133328346D01*
X183516838Y-133328343D01*
X183479875Y-133285066D01*
X183353224Y-133136776D01*
X183226571Y-133028604D01*
X183161656Y-132973161D01*
X183161653Y-132973160D01*
X182946859Y-132841533D01*
X182714110Y-132745126D01*
X182469151Y-132686317D01*
X182218000Y-132666551D01*
X181966848Y-132686317D01*
X181721889Y-132745126D01*
X181489140Y-132841533D01*
X181274346Y-132973160D01*
X181274343Y-132973161D01*
X181082776Y-133136776D01*
X180919161Y-133328343D01*
X180919160Y-133328346D01*
X180787533Y-133543140D01*
X180691126Y-133775889D01*
X180632317Y-134020848D01*
X180612551Y-134272000D01*
X180632317Y-134523151D01*
X180691126Y-134768110D01*
X180787533Y-135000859D01*
X180919160Y-135215653D01*
X180919161Y-135215656D01*
X180919164Y-135215659D01*
X181082776Y-135407224D01*
X181231066Y-135533875D01*
X181274343Y-135570838D01*
X181274346Y-135570839D01*
X181489140Y-135702466D01*
X181652043Y-135769942D01*
X181721889Y-135798873D01*
X181966852Y-135857683D01*
X182218000Y-135877449D01*
X182469148Y-135857683D01*
X182714111Y-135798873D01*
X182765923Y-135777411D01*
X182835388Y-135769942D01*
X182897868Y-135801216D01*
X182901055Y-135804291D01*
X183513181Y-136416416D01*
X183546666Y-136477739D01*
X183549500Y-136504097D01*
X183549500Y-138035435D01*
X183529815Y-138102474D01*
X183477011Y-138148229D01*
X183407853Y-138158173D01*
X183344968Y-138129725D01*
X183314596Y-138103785D01*
X183234569Y-138035435D01*
X183161656Y-137973161D01*
X183161653Y-137973160D01*
X182946859Y-137841533D01*
X182714110Y-137745126D01*
X182469151Y-137686317D01*
X182218000Y-137666551D01*
X181966848Y-137686317D01*
X181721889Y-137745126D01*
X181489140Y-137841533D01*
X181274346Y-137973160D01*
X181274343Y-137973161D01*
X181082776Y-138136776D01*
X180919161Y-138328343D01*
X180919160Y-138328346D01*
X180787533Y-138543140D01*
X180691126Y-138775889D01*
X180632317Y-139020848D01*
X180612551Y-139272000D01*
X180632317Y-139523151D01*
X180691126Y-139768110D01*
X180787533Y-140000859D01*
X180919160Y-140215653D01*
X180919161Y-140215656D01*
X180919164Y-140215659D01*
X181082776Y-140407224D01*
X181231066Y-140533875D01*
X181274343Y-140570838D01*
X181274346Y-140570839D01*
X181489140Y-140702466D01*
X181670077Y-140777412D01*
X181721889Y-140798873D01*
X181966852Y-140857683D01*
X182218000Y-140877449D01*
X182469148Y-140857683D01*
X182714111Y-140798873D01*
X182736960Y-140789408D01*
X182765923Y-140777412D01*
X182835392Y-140769943D01*
X182897871Y-140801218D01*
X182901057Y-140804292D01*
X183113181Y-141016416D01*
X183146666Y-141077739D01*
X183149500Y-141104097D01*
X183149500Y-157628330D01*
X183149499Y-157628348D01*
X183149499Y-157794054D01*
X183149498Y-157794054D01*
X183190423Y-157946787D01*
X183190424Y-157946788D01*
X183198351Y-157960517D01*
X183198353Y-157960520D01*
X183269477Y-158083712D01*
X183269481Y-158083717D01*
X183388349Y-158202585D01*
X183388355Y-158202590D01*
X186713181Y-161527416D01*
X186746666Y-161588739D01*
X186749500Y-161615097D01*
X186749500Y-164435410D01*
X186729815Y-164502449D01*
X186677011Y-164548204D01*
X186612246Y-164558700D01*
X186577830Y-164555000D01*
X186330000Y-164555000D01*
X186330000Y-167055000D01*
X186577828Y-167055000D01*
X186577844Y-167054999D01*
X186637372Y-167048598D01*
X186637375Y-167048597D01*
X186670949Y-167036075D01*
X186740640Y-167031089D01*
X186757619Y-167036075D01*
X186792511Y-167049089D01*
X186792517Y-167049091D01*
X186852127Y-167055500D01*
X187109902Y-167055499D01*
X187176941Y-167075183D01*
X187197583Y-167091818D01*
X188745139Y-168639374D01*
X188745149Y-168639385D01*
X188749479Y-168643715D01*
X188749480Y-168643716D01*
X188861284Y-168755520D01*
X188861286Y-168755521D01*
X188861290Y-168755524D01*
X188998209Y-168834573D01*
X188998216Y-168834577D01*
X189110019Y-168864534D01*
X189150942Y-168875500D01*
X189150943Y-168875500D01*
X208828331Y-168875500D01*
X208828347Y-168875501D01*
X208835943Y-168875501D01*
X208994054Y-168875501D01*
X208994057Y-168875501D01*
X209146785Y-168834577D01*
X209196904Y-168805639D01*
X209283716Y-168755520D01*
X209395520Y-168643716D01*
X209395520Y-168643714D01*
X209405728Y-168633507D01*
X209405730Y-168633504D01*
X210336470Y-167702763D01*
X210397791Y-167669280D01*
X210456238Y-167670670D01*
X210584592Y-167705063D01*
X210772918Y-167721539D01*
X210819999Y-167725659D01*
X210820000Y-167725659D01*
X210820001Y-167725659D01*
X210859234Y-167722226D01*
X211055408Y-167705063D01*
X211283663Y-167643903D01*
X211497830Y-167544035D01*
X211691401Y-167408495D01*
X211858495Y-167241401D01*
X211994035Y-167047830D01*
X212093903Y-166833663D01*
X212155063Y-166605408D01*
X212175659Y-166370000D01*
X212155063Y-166134592D01*
X212093903Y-165906337D01*
X211994035Y-165692171D01*
X211968665Y-165655939D01*
X211858496Y-165498600D01*
X211845111Y-165485215D01*
X211736179Y-165376283D01*
X211702696Y-165314963D01*
X211707680Y-165245271D01*
X211749551Y-165189337D01*
X211780529Y-165172422D01*
X211912086Y-165123354D01*
X211912093Y-165123350D01*
X212027187Y-165037190D01*
X212027190Y-165037187D01*
X212113350Y-164922093D01*
X212113354Y-164922086D01*
X212163596Y-164787379D01*
X212163598Y-164787372D01*
X212169999Y-164727844D01*
X212170000Y-164727827D01*
X212170000Y-164080000D01*
X211253012Y-164080000D01*
X211285925Y-164022993D01*
X211320000Y-163895826D01*
X211320000Y-163764174D01*
X211285925Y-163637007D01*
X211253012Y-163580000D01*
X212170000Y-163580000D01*
X212170000Y-162932172D01*
X212169999Y-162932155D01*
X212163598Y-162872627D01*
X212163596Y-162872620D01*
X212113354Y-162737913D01*
X212113350Y-162737906D01*
X212027190Y-162622812D01*
X212027187Y-162622809D01*
X211912093Y-162536649D01*
X211912086Y-162536645D01*
X211777379Y-162486403D01*
X211777372Y-162486401D01*
X211717844Y-162480000D01*
X211070000Y-162480000D01*
X211070000Y-163396988D01*
X211012993Y-163364075D01*
X210885826Y-163330000D01*
X210754174Y-163330000D01*
X210627007Y-163364075D01*
X210570000Y-163396988D01*
X210570000Y-162480000D01*
X210143596Y-162480000D01*
X210076557Y-162460315D01*
X210030802Y-162407511D01*
X210020858Y-162338353D01*
X210049883Y-162274797D01*
X210055899Y-162268335D01*
X213205520Y-159118716D01*
X213284577Y-158981784D01*
X213325501Y-158829057D01*
X213325501Y-158670942D01*
X213325501Y-158663347D01*
X213325500Y-158663329D01*
X213325500Y-156299059D01*
X213325501Y-156299046D01*
X213325501Y-156130945D01*
X213325501Y-156130943D01*
X213284577Y-155978215D01*
X213249308Y-155917128D01*
X213205520Y-155841284D01*
X213093716Y-155729480D01*
X213093715Y-155729479D01*
X213089385Y-155725149D01*
X213089374Y-155725139D01*
X212152766Y-154788531D01*
X212119281Y-154727208D01*
X212120672Y-154668757D01*
X212124500Y-154654472D01*
X212155063Y-154540408D01*
X212175659Y-154305000D01*
X212155063Y-154069592D01*
X212093903Y-153841337D01*
X211994035Y-153627171D01*
X211934508Y-153542156D01*
X211858494Y-153433597D01*
X211691402Y-153266506D01*
X211691396Y-153266501D01*
X211505842Y-153136575D01*
X211462217Y-153081998D01*
X211455023Y-153012500D01*
X211486546Y-152950145D01*
X211505842Y-152933425D01*
X211528026Y-152917891D01*
X211691401Y-152803495D01*
X211858495Y-152636401D01*
X211994035Y-152442830D01*
X212093903Y-152228663D01*
X212155063Y-152000408D01*
X212175659Y-151765000D01*
X212155063Y-151529592D01*
X212093903Y-151301337D01*
X211994035Y-151087171D01*
X211858495Y-150893599D01*
X211736567Y-150771671D01*
X211703084Y-150710351D01*
X211708068Y-150640659D01*
X211749939Y-150584725D01*
X211780915Y-150567810D01*
X211912331Y-150518796D01*
X212027546Y-150432546D01*
X212113796Y-150317331D01*
X212164091Y-150182483D01*
X212170500Y-150122873D01*
X212170499Y-148327128D01*
X212164091Y-148267517D01*
X212113796Y-148132669D01*
X212113795Y-148132668D01*
X212113793Y-148132664D01*
X212027547Y-148017455D01*
X212027544Y-148017452D01*
X211912335Y-147931206D01*
X211912328Y-147931202D01*
X211777482Y-147880908D01*
X211777483Y-147880908D01*
X211717883Y-147874501D01*
X211717881Y-147874500D01*
X211717873Y-147874500D01*
X211717864Y-147874500D01*
X209922129Y-147874500D01*
X209922123Y-147874501D01*
X209862516Y-147880908D01*
X209727671Y-147931202D01*
X209727664Y-147931206D01*
X209612455Y-148017452D01*
X209612452Y-148017455D01*
X209526206Y-148132664D01*
X209526202Y-148132671D01*
X209475908Y-148267517D01*
X209469501Y-148327116D01*
X209469501Y-148327123D01*
X209469500Y-148327135D01*
X209469500Y-148500500D01*
X209449815Y-148567539D01*
X209397011Y-148613294D01*
X209345500Y-148624500D01*
X208580097Y-148624500D01*
X208513058Y-148604815D01*
X208492416Y-148588181D01*
X205592590Y-145688355D01*
X205592588Y-145688352D01*
X205473717Y-145569481D01*
X205473716Y-145569480D01*
X205386904Y-145519360D01*
X205386904Y-145519359D01*
X205386900Y-145519358D01*
X205336785Y-145490423D01*
X205184057Y-145449499D01*
X205025943Y-145449499D01*
X205018347Y-145449499D01*
X205018331Y-145449500D01*
X191281670Y-145449500D01*
X191281654Y-145449499D01*
X191274058Y-145449499D01*
X191115943Y-145449499D01*
X191039579Y-145469961D01*
X190963214Y-145490423D01*
X190963209Y-145490426D01*
X190826290Y-145569475D01*
X190826282Y-145569481D01*
X189409481Y-146986282D01*
X189409477Y-146986287D01*
X189397979Y-147006203D01*
X189347411Y-147054417D01*
X189333925Y-147060383D01*
X189298332Y-147073658D01*
X189228640Y-147078642D01*
X189211669Y-147073659D01*
X189194140Y-147067121D01*
X189177483Y-147060909D01*
X189177482Y-147060908D01*
X189117883Y-147054501D01*
X189117881Y-147054500D01*
X189117873Y-147054500D01*
X189117864Y-147054500D01*
X188122129Y-147054500D01*
X188122123Y-147054501D01*
X188062518Y-147060908D01*
X188028331Y-147073659D01*
X187958639Y-147078642D01*
X187941669Y-147073659D01*
X187924140Y-147067121D01*
X187907483Y-147060909D01*
X187907482Y-147060908D01*
X187847883Y-147054501D01*
X187847881Y-147054500D01*
X187847873Y-147054500D01*
X187847864Y-147054500D01*
X186852129Y-147054500D01*
X186852123Y-147054501D01*
X186792520Y-147060908D01*
X186792517Y-147060908D01*
X186792517Y-147060909D01*
X186757620Y-147073925D01*
X186757617Y-147073926D01*
X186687925Y-147078909D01*
X186670952Y-147073925D01*
X186637379Y-147061403D01*
X186637372Y-147061401D01*
X186577844Y-147055000D01*
X186330000Y-147055000D01*
X186330000Y-149555000D01*
X186577828Y-149555000D01*
X186577844Y-149554999D01*
X186637372Y-149548598D01*
X186637375Y-149548597D01*
X186670949Y-149536075D01*
X186740640Y-149531089D01*
X186757619Y-149536075D01*
X186792511Y-149549089D01*
X186792512Y-149549089D01*
X186792517Y-149549091D01*
X186852127Y-149555500D01*
X187847872Y-149555499D01*
X187907483Y-149549091D01*
X187941667Y-149536340D01*
X188011358Y-149531357D01*
X188028327Y-149536338D01*
X188062517Y-149549091D01*
X188122127Y-149555500D01*
X189117872Y-149555499D01*
X189177483Y-149549091D01*
X189211667Y-149536340D01*
X189281358Y-149531357D01*
X189298327Y-149536338D01*
X189332517Y-149549091D01*
X189392127Y-149555500D01*
X190387872Y-149555499D01*
X190447483Y-149549091D01*
X190481667Y-149536340D01*
X190551358Y-149531357D01*
X190568327Y-149536338D01*
X190602517Y-149549091D01*
X190662127Y-149555500D01*
X191657872Y-149555499D01*
X191717483Y-149549091D01*
X191751667Y-149536340D01*
X191821358Y-149531357D01*
X191838327Y-149536338D01*
X191872517Y-149549091D01*
X191932127Y-149555500D01*
X192927872Y-149555499D01*
X192987483Y-149549091D01*
X193021667Y-149536340D01*
X193091358Y-149531357D01*
X193108327Y-149536338D01*
X193142517Y-149549091D01*
X193202127Y-149555500D01*
X194197872Y-149555499D01*
X194257483Y-149549091D01*
X194291667Y-149536340D01*
X194361358Y-149531357D01*
X194378327Y-149536338D01*
X194412517Y-149549091D01*
X194472127Y-149555500D01*
X195467872Y-149555499D01*
X195527483Y-149549091D01*
X195561667Y-149536340D01*
X195631358Y-149531357D01*
X195648327Y-149536338D01*
X195682517Y-149549091D01*
X195742127Y-149555500D01*
X196737872Y-149555499D01*
X196797483Y-149549091D01*
X196831667Y-149536340D01*
X196901358Y-149531357D01*
X196918327Y-149536338D01*
X196952517Y-149549091D01*
X197012127Y-149555500D01*
X198007872Y-149555499D01*
X198067483Y-149549091D01*
X198101667Y-149536340D01*
X198171358Y-149531357D01*
X198188327Y-149536338D01*
X198222517Y-149549091D01*
X198282127Y-149555500D01*
X199277872Y-149555499D01*
X199337483Y-149549091D01*
X199371667Y-149536340D01*
X199441358Y-149531357D01*
X199458327Y-149536338D01*
X199492517Y-149549091D01*
X199552127Y-149555500D01*
X200547872Y-149555499D01*
X200607483Y-149549091D01*
X200641667Y-149536340D01*
X200711358Y-149531357D01*
X200728327Y-149536338D01*
X200762517Y-149549091D01*
X200822127Y-149555500D01*
X201817872Y-149555499D01*
X201877483Y-149549091D01*
X201911667Y-149536340D01*
X201981358Y-149531357D01*
X201998327Y-149536338D01*
X202032517Y-149549091D01*
X202092127Y-149555500D01*
X203087872Y-149555499D01*
X203147483Y-149549091D01*
X203282331Y-149498796D01*
X203397546Y-149412546D01*
X203483796Y-149297331D01*
X203534091Y-149162483D01*
X203540500Y-149102873D01*
X203540500Y-149029500D01*
X203560185Y-148962461D01*
X203612989Y-148916706D01*
X203664500Y-148905500D01*
X204519903Y-148905500D01*
X204586942Y-148925185D01*
X204607584Y-148941819D01*
X208278181Y-152612416D01*
X208311666Y-152673739D01*
X208314500Y-152700097D01*
X208314500Y-154853330D01*
X208314499Y-154853348D01*
X208314499Y-155019054D01*
X208314498Y-155019054D01*
X208355423Y-155171786D01*
X208366880Y-155191628D01*
X208366881Y-155191633D01*
X208366882Y-155191633D01*
X208434475Y-155308709D01*
X208434481Y-155308717D01*
X208553349Y-155427585D01*
X208553355Y-155427590D01*
X209487233Y-156361468D01*
X209520718Y-156422791D01*
X209519327Y-156481241D01*
X209484939Y-156609583D01*
X209484936Y-156609596D01*
X209464341Y-156844999D01*
X209464341Y-156845000D01*
X209484936Y-157080403D01*
X209484938Y-157080413D01*
X209546094Y-157308655D01*
X209546096Y-157308659D01*
X209546097Y-157308663D01*
X209628325Y-157485000D01*
X209645965Y-157522830D01*
X209645967Y-157522834D01*
X209727564Y-157639365D01*
X209781505Y-157716401D01*
X209948599Y-157883495D01*
X210038986Y-157946785D01*
X210142165Y-158019032D01*
X210142167Y-158019033D01*
X210142170Y-158019035D01*
X210356337Y-158118903D01*
X210584592Y-158180063D01*
X210761274Y-158195521D01*
X210819999Y-158200659D01*
X210820000Y-158200659D01*
X210820001Y-158200659D01*
X210878726Y-158195521D01*
X211055408Y-158180063D01*
X211283663Y-158118903D01*
X211497830Y-158019035D01*
X211691401Y-157883495D01*
X211858495Y-157716401D01*
X211898925Y-157658660D01*
X211953502Y-157615036D01*
X212023000Y-157607842D01*
X212085355Y-157639365D01*
X212120769Y-157699594D01*
X212124500Y-157729784D01*
X212124500Y-158449902D01*
X212104815Y-158516941D01*
X212088181Y-158537583D01*
X208434481Y-162191282D01*
X208434479Y-162191285D01*
X208423398Y-162210478D01*
X208390667Y-162267172D01*
X208384361Y-162278094D01*
X208384359Y-162278096D01*
X208355425Y-162328209D01*
X208355424Y-162328210D01*
X208346355Y-162362058D01*
X208314499Y-162480943D01*
X208314499Y-162480945D01*
X208314499Y-162649046D01*
X208314500Y-162649059D01*
X208314500Y-165434903D01*
X208294815Y-165501942D01*
X208278181Y-165522584D01*
X206797584Y-167003181D01*
X206736261Y-167036666D01*
X206709903Y-167039500D01*
X203550231Y-167039500D01*
X203483192Y-167019815D01*
X203437437Y-166967011D01*
X203427493Y-166897853D01*
X203450964Y-166841189D01*
X203456604Y-166833655D01*
X203483796Y-166797331D01*
X203534091Y-166662483D01*
X203540500Y-166602873D01*
X203540499Y-165007128D01*
X203534091Y-164947517D01*
X203524608Y-164922093D01*
X203483797Y-164812671D01*
X203483793Y-164812664D01*
X203397547Y-164697455D01*
X203397544Y-164697452D01*
X203282335Y-164611206D01*
X203282328Y-164611202D01*
X203147482Y-164560908D01*
X203147483Y-164560908D01*
X203087883Y-164554501D01*
X203087881Y-164554500D01*
X203087873Y-164554500D01*
X203087864Y-164554500D01*
X202092129Y-164554500D01*
X202092123Y-164554501D01*
X202057753Y-164558196D01*
X201988994Y-164545789D01*
X201937857Y-164498178D01*
X201920500Y-164434906D01*
X201920500Y-163104854D01*
X201939507Y-163038881D01*
X201954513Y-163015000D01*
X202590000Y-163015000D01*
X202590000Y-163262844D01*
X202596401Y-163322372D01*
X202596403Y-163322379D01*
X202646645Y-163457086D01*
X202646649Y-163457093D01*
X202732809Y-163572187D01*
X202732812Y-163572190D01*
X202847906Y-163658350D01*
X202847913Y-163658354D01*
X202982620Y-163708596D01*
X202982627Y-163708598D01*
X203042155Y-163714999D01*
X203042172Y-163715000D01*
X203590000Y-163715000D01*
X203590000Y-163015000D01*
X204090000Y-163015000D01*
X204090000Y-163715000D01*
X204637828Y-163715000D01*
X204637844Y-163714999D01*
X204697372Y-163708598D01*
X204697379Y-163708596D01*
X204832086Y-163658354D01*
X204832093Y-163658350D01*
X204947187Y-163572190D01*
X204947190Y-163572187D01*
X205033350Y-163457093D01*
X205033354Y-163457086D01*
X205083596Y-163322379D01*
X205083598Y-163322372D01*
X205089999Y-163262844D01*
X205090000Y-163262827D01*
X205090000Y-163015000D01*
X204090000Y-163015000D01*
X203590000Y-163015000D01*
X202590000Y-163015000D01*
X201954513Y-163015000D01*
X202020788Y-162909524D01*
X202033699Y-162872627D01*
X202080368Y-162739255D01*
X202080369Y-162739249D01*
X202100565Y-162560003D01*
X202100565Y-162559996D01*
X202080369Y-162380750D01*
X202080368Y-162380745D01*
X202053005Y-162302546D01*
X202020789Y-162210478D01*
X202018994Y-162207622D01*
X201924815Y-162057737D01*
X201859948Y-161992870D01*
X202589500Y-161992870D01*
X202589501Y-161992876D01*
X202595908Y-162052483D01*
X202608925Y-162087381D01*
X202613909Y-162157072D01*
X202608925Y-162174047D01*
X202596403Y-162207619D01*
X202596401Y-162207627D01*
X202590000Y-162267155D01*
X202590000Y-162515000D01*
X205090000Y-162515000D01*
X205090000Y-162267172D01*
X205089999Y-162267155D01*
X205083597Y-162207622D01*
X205083597Y-162207620D01*
X205071075Y-162174048D01*
X205066089Y-162104356D01*
X205071071Y-162087390D01*
X205084091Y-162052483D01*
X205090500Y-161992873D01*
X205090499Y-160997128D01*
X205084091Y-160937517D01*
X205071340Y-160903332D01*
X205066357Y-160833642D01*
X205071340Y-160816669D01*
X205084091Y-160782483D01*
X205090500Y-160722873D01*
X205090499Y-159727128D01*
X205084091Y-159667517D01*
X205071340Y-159633332D01*
X205066357Y-159563642D01*
X205071340Y-159546669D01*
X205084091Y-159512483D01*
X205090500Y-159452873D01*
X205090499Y-158457128D01*
X205084091Y-158397517D01*
X205071340Y-158363332D01*
X205066357Y-158293642D01*
X205071340Y-158276669D01*
X205084091Y-158242483D01*
X205090500Y-158182873D01*
X205090499Y-157187128D01*
X205084091Y-157127517D01*
X205071340Y-157093332D01*
X205066357Y-157023642D01*
X205071340Y-157006669D01*
X205084091Y-156972483D01*
X205090500Y-156912873D01*
X205090499Y-155917128D01*
X205084091Y-155857517D01*
X205071340Y-155823332D01*
X205066357Y-155753642D01*
X205071340Y-155736669D01*
X205084091Y-155702483D01*
X205090500Y-155642873D01*
X205090499Y-154647128D01*
X205084091Y-154587517D01*
X205071340Y-154553332D01*
X205066357Y-154483642D01*
X205071340Y-154466669D01*
X205084091Y-154432483D01*
X205090500Y-154372873D01*
X205090499Y-153377128D01*
X205084091Y-153317517D01*
X205071340Y-153283332D01*
X205066357Y-153213642D01*
X205071340Y-153196669D01*
X205084091Y-153162483D01*
X205090500Y-153102873D01*
X205090499Y-152107128D01*
X205084091Y-152047517D01*
X205071340Y-152013332D01*
X205066357Y-151943642D01*
X205071340Y-151926669D01*
X205084091Y-151892483D01*
X205090500Y-151832873D01*
X205090499Y-150837128D01*
X205084091Y-150777517D01*
X205081911Y-150771673D01*
X205033797Y-150642671D01*
X205033793Y-150642664D01*
X204947547Y-150527455D01*
X204947544Y-150527452D01*
X204832335Y-150441206D01*
X204832328Y-150441202D01*
X204697482Y-150390908D01*
X204697483Y-150390908D01*
X204637883Y-150384501D01*
X204637881Y-150384500D01*
X204637873Y-150384500D01*
X204637864Y-150384500D01*
X203042129Y-150384500D01*
X203042123Y-150384501D01*
X202982516Y-150390908D01*
X202847671Y-150441202D01*
X202847664Y-150441206D01*
X202732455Y-150527452D01*
X202732452Y-150527455D01*
X202646206Y-150642664D01*
X202646202Y-150642671D01*
X202595908Y-150777517D01*
X202589501Y-150837116D01*
X202589501Y-150837123D01*
X202589500Y-150837135D01*
X202589500Y-151832870D01*
X202589501Y-151832876D01*
X202595908Y-151892481D01*
X202608659Y-151926669D01*
X202613642Y-151996361D01*
X202608659Y-152013331D01*
X202595908Y-152047518D01*
X202589501Y-152107116D01*
X202589501Y-152107123D01*
X202589500Y-152107135D01*
X202589500Y-153102870D01*
X202589501Y-153102876D01*
X202595908Y-153162481D01*
X202608659Y-153196669D01*
X202613642Y-153266361D01*
X202608659Y-153283331D01*
X202595908Y-153317518D01*
X202589501Y-153377116D01*
X202589501Y-153377123D01*
X202589500Y-153377135D01*
X202589500Y-154372870D01*
X202589501Y-154372876D01*
X202595908Y-154432481D01*
X202608659Y-154466669D01*
X202613642Y-154536361D01*
X202608659Y-154553331D01*
X202595908Y-154587518D01*
X202589501Y-154647116D01*
X202589501Y-154647123D01*
X202589500Y-154647135D01*
X202589500Y-155642870D01*
X202589501Y-155642876D01*
X202595908Y-155702481D01*
X202608659Y-155736669D01*
X202613642Y-155806361D01*
X202608659Y-155823331D01*
X202595908Y-155857518D01*
X202589501Y-155917116D01*
X202589500Y-155917128D01*
X202589500Y-156912870D01*
X202589501Y-156912876D01*
X202595908Y-156972481D01*
X202608659Y-157006669D01*
X202613642Y-157076361D01*
X202608659Y-157093331D01*
X202595908Y-157127518D01*
X202590277Y-157179902D01*
X202589501Y-157187123D01*
X202589500Y-157187135D01*
X202589500Y-158182870D01*
X202589501Y-158182876D01*
X202595908Y-158242481D01*
X202608659Y-158276669D01*
X202613642Y-158346361D01*
X202608659Y-158363331D01*
X202595908Y-158397518D01*
X202591249Y-158440855D01*
X202589501Y-158457123D01*
X202589500Y-158457135D01*
X202589500Y-159452870D01*
X202589501Y-159452876D01*
X202595908Y-159512481D01*
X202608659Y-159546669D01*
X202613642Y-159616361D01*
X202608659Y-159633331D01*
X202595908Y-159667518D01*
X202589501Y-159727116D01*
X202589501Y-159727123D01*
X202589500Y-159727135D01*
X202589500Y-160722870D01*
X202589501Y-160722876D01*
X202595908Y-160782481D01*
X202608659Y-160816669D01*
X202613642Y-160886361D01*
X202608659Y-160903331D01*
X202595908Y-160937518D01*
X202589501Y-160997116D01*
X202589501Y-160997123D01*
X202589500Y-160997135D01*
X202589500Y-161992870D01*
X201859948Y-161992870D01*
X201797262Y-161930184D01*
X201644523Y-161834211D01*
X201474254Y-161774631D01*
X201474249Y-161774630D01*
X201295004Y-161754435D01*
X201294996Y-161754435D01*
X201115750Y-161774630D01*
X201115745Y-161774631D01*
X200945476Y-161834211D01*
X200792737Y-161930184D01*
X200665184Y-162057737D01*
X200569211Y-162210476D01*
X200509631Y-162380745D01*
X200509630Y-162380750D01*
X200489435Y-162559996D01*
X200489435Y-162560003D01*
X200509630Y-162739249D01*
X200509631Y-162739254D01*
X200569211Y-162909523D01*
X200665184Y-163062262D01*
X200683181Y-163080259D01*
X200716666Y-163141582D01*
X200719500Y-163167940D01*
X200719500Y-164434906D01*
X200699815Y-164501945D01*
X200647011Y-164547700D01*
X200582247Y-164558195D01*
X200547873Y-164554500D01*
X200547865Y-164554500D01*
X199552129Y-164554500D01*
X199552115Y-164554501D01*
X199517751Y-164558195D01*
X199448992Y-164545787D01*
X199397857Y-164498174D01*
X199380501Y-164434905D01*
X199380501Y-164410944D01*
X199380501Y-164410943D01*
X199339577Y-164258216D01*
X199294144Y-164179523D01*
X199260524Y-164121290D01*
X199260518Y-164121282D01*
X197972590Y-162833355D01*
X197972588Y-162833352D01*
X197853717Y-162714481D01*
X197853716Y-162714480D01*
X197766380Y-162664057D01*
X197766378Y-162664055D01*
X197716788Y-162635424D01*
X197716787Y-162635423D01*
X197655693Y-162619053D01*
X197564057Y-162594499D01*
X197405943Y-162594499D01*
X197398347Y-162594499D01*
X197398331Y-162594500D01*
X190165098Y-162594500D01*
X190098059Y-162574815D01*
X190077417Y-162558181D01*
X185504236Y-157985000D01*
X190820000Y-157985000D01*
X190820000Y-159882844D01*
X190826401Y-159942372D01*
X190826403Y-159942379D01*
X190876645Y-160077086D01*
X190876649Y-160077093D01*
X190962809Y-160192187D01*
X190962812Y-160192190D01*
X191077906Y-160278350D01*
X191077913Y-160278354D01*
X191212620Y-160328596D01*
X191212627Y-160328598D01*
X191272155Y-160334999D01*
X191272172Y-160335000D01*
X193170000Y-160335000D01*
X193670000Y-160335000D01*
X195567828Y-160335000D01*
X195567844Y-160334999D01*
X195627372Y-160328598D01*
X195627379Y-160328596D01*
X195762086Y-160278354D01*
X195762093Y-160278350D01*
X195877187Y-160192190D01*
X195877190Y-160192187D01*
X195963350Y-160077093D01*
X195963354Y-160077086D01*
X196013596Y-159942379D01*
X196013598Y-159942372D01*
X196019999Y-159882844D01*
X196020000Y-159882827D01*
X196020000Y-157985000D01*
X195195000Y-157985000D01*
X195195000Y-158393947D01*
X195210872Y-158409819D01*
X195244357Y-158471142D01*
X195239373Y-158540834D01*
X195210872Y-158585181D01*
X195195000Y-158601052D01*
X195195000Y-159386000D01*
X195175315Y-159453039D01*
X195122511Y-159498794D01*
X195071000Y-159510000D01*
X194286052Y-159510000D01*
X194270181Y-159525872D01*
X194208858Y-159559357D01*
X194139166Y-159554373D01*
X194094819Y-159525872D01*
X194078947Y-159510000D01*
X193670000Y-159510000D01*
X193670000Y-160335000D01*
X193170000Y-160335000D01*
X193170000Y-159510000D01*
X192761052Y-159510000D01*
X192745181Y-159525872D01*
X192683858Y-159559357D01*
X192614166Y-159554373D01*
X192569819Y-159525872D01*
X192553947Y-159510000D01*
X191769000Y-159510000D01*
X191701961Y-159490315D01*
X191656206Y-159437511D01*
X191645000Y-159386000D01*
X191645000Y-159279891D01*
X192557500Y-159279891D01*
X192572724Y-159316645D01*
X192600855Y-159344776D01*
X192637609Y-159360000D01*
X192677391Y-159360000D01*
X192714145Y-159344776D01*
X192742276Y-159316645D01*
X192757500Y-159279891D01*
X194082500Y-159279891D01*
X194097724Y-159316645D01*
X194125855Y-159344776D01*
X194162609Y-159360000D01*
X194202391Y-159360000D01*
X194239145Y-159344776D01*
X194267276Y-159316645D01*
X194282500Y-159279891D01*
X194282500Y-159240109D01*
X194267276Y-159203355D01*
X194239145Y-159175224D01*
X194202391Y-159160000D01*
X194162609Y-159160000D01*
X194125855Y-159175224D01*
X194097724Y-159203355D01*
X194082500Y-159240109D01*
X194082500Y-159279891D01*
X192757500Y-159279891D01*
X192757500Y-159240109D01*
X192742276Y-159203355D01*
X192714145Y-159175224D01*
X192677391Y-159160000D01*
X192637609Y-159160000D01*
X192600855Y-159175224D01*
X192572724Y-159203355D01*
X192557500Y-159240109D01*
X192557500Y-159279891D01*
X191645000Y-159279891D01*
X191645000Y-158601053D01*
X191629128Y-158585181D01*
X191595643Y-158523858D01*
X191596105Y-158517391D01*
X191795000Y-158517391D01*
X191810224Y-158554145D01*
X191838355Y-158582276D01*
X191875109Y-158597500D01*
X191914891Y-158597500D01*
X191951645Y-158582276D01*
X191979776Y-158554145D01*
X191995000Y-158517391D01*
X191995000Y-158497500D01*
X192248553Y-158497500D01*
X192414948Y-158663895D01*
X192414963Y-158663909D01*
X192657500Y-158906446D01*
X193046555Y-158517391D01*
X193320000Y-158517391D01*
X193335224Y-158554145D01*
X193363355Y-158582276D01*
X193400109Y-158597500D01*
X193439891Y-158597500D01*
X193476645Y-158582276D01*
X193504776Y-158554145D01*
X193520000Y-158517391D01*
X193520000Y-158497500D01*
X193773553Y-158497500D01*
X193939948Y-158663895D01*
X193939963Y-158663909D01*
X194182500Y-158906446D01*
X194571555Y-158517391D01*
X194845000Y-158517391D01*
X194860224Y-158554145D01*
X194888355Y-158582276D01*
X194925109Y-158597500D01*
X194964891Y-158597500D01*
X195001645Y-158582276D01*
X195029776Y-158554145D01*
X195045000Y-158517391D01*
X195045000Y-158477609D01*
X195029776Y-158440855D01*
X195001645Y-158412724D01*
X194964891Y-158397500D01*
X194925109Y-158397500D01*
X194888355Y-158412724D01*
X194860224Y-158440855D01*
X194845000Y-158477609D01*
X194845000Y-158517391D01*
X194571555Y-158517391D01*
X194591446Y-158497500D01*
X194237892Y-158143946D01*
X194182500Y-158088553D01*
X194127108Y-158143946D01*
X194127107Y-158143947D01*
X193773553Y-158497499D01*
X193773553Y-158497500D01*
X193520000Y-158497500D01*
X193520000Y-158477609D01*
X193504776Y-158440855D01*
X193476645Y-158412724D01*
X193439891Y-158397500D01*
X193400109Y-158397500D01*
X193363355Y-158412724D01*
X193335224Y-158440855D01*
X193320000Y-158477609D01*
X193320000Y-158517391D01*
X193046555Y-158517391D01*
X193066446Y-158497500D01*
X192712892Y-158143946D01*
X192657500Y-158088553D01*
X192602108Y-158143946D01*
X192602107Y-158143947D01*
X192248553Y-158497499D01*
X192248553Y-158497500D01*
X191995000Y-158497500D01*
X191995000Y-158477609D01*
X191979776Y-158440855D01*
X191951645Y-158412724D01*
X191914891Y-158397500D01*
X191875109Y-158397500D01*
X191838355Y-158412724D01*
X191810224Y-158440855D01*
X191795000Y-158477609D01*
X191795000Y-158517391D01*
X191596105Y-158517391D01*
X191600627Y-158454166D01*
X191629128Y-158409819D01*
X191644999Y-158393947D01*
X191645000Y-158393946D01*
X191645000Y-157985000D01*
X190820000Y-157985000D01*
X185504236Y-157985000D01*
X185274127Y-157754891D01*
X192557500Y-157754891D01*
X192572724Y-157791645D01*
X192600855Y-157819776D01*
X192637609Y-157835000D01*
X192677391Y-157835000D01*
X192714145Y-157819776D01*
X192742276Y-157791645D01*
X192757500Y-157754891D01*
X194082500Y-157754891D01*
X194097724Y-157791645D01*
X194125855Y-157819776D01*
X194162609Y-157835000D01*
X194202391Y-157835000D01*
X194239145Y-157819776D01*
X194267276Y-157791645D01*
X194282500Y-157754891D01*
X194282500Y-157715109D01*
X194267276Y-157678355D01*
X194239145Y-157650224D01*
X194202391Y-157635000D01*
X194162609Y-157635000D01*
X194125855Y-157650224D01*
X194097724Y-157678355D01*
X194082500Y-157715109D01*
X194082500Y-157754891D01*
X192757500Y-157754891D01*
X192757500Y-157715109D01*
X192742276Y-157678355D01*
X192714145Y-157650224D01*
X192677391Y-157635000D01*
X192637609Y-157635000D01*
X192600855Y-157650224D01*
X192572724Y-157678355D01*
X192557500Y-157715109D01*
X192557500Y-157754891D01*
X185274127Y-157754891D01*
X185004236Y-157485000D01*
X190820000Y-157485000D01*
X191645000Y-157485000D01*
X191645000Y-157076053D01*
X191629128Y-157060181D01*
X191595643Y-156998858D01*
X191596105Y-156992391D01*
X191795000Y-156992391D01*
X191810224Y-157029145D01*
X191838355Y-157057276D01*
X191875109Y-157072500D01*
X191914891Y-157072500D01*
X191951645Y-157057276D01*
X191979776Y-157029145D01*
X191995000Y-156992391D01*
X191995000Y-156972499D01*
X192248553Y-156972499D01*
X192657500Y-157381446D01*
X193046555Y-156992391D01*
X193320000Y-156992391D01*
X193335224Y-157029145D01*
X193363355Y-157057276D01*
X193400109Y-157072500D01*
X193439891Y-157072500D01*
X193476645Y-157057276D01*
X193504776Y-157029145D01*
X193520000Y-156992391D01*
X193520000Y-156972499D01*
X193773553Y-156972499D01*
X194182500Y-157381446D01*
X194571555Y-156992391D01*
X194845000Y-156992391D01*
X194860224Y-157029145D01*
X194888355Y-157057276D01*
X194925109Y-157072500D01*
X194964891Y-157072500D01*
X195001645Y-157057276D01*
X195029776Y-157029145D01*
X195045000Y-156992391D01*
X195045000Y-156952609D01*
X195029776Y-156915855D01*
X195001645Y-156887724D01*
X194964891Y-156872500D01*
X194925109Y-156872500D01*
X194888355Y-156887724D01*
X194860224Y-156915855D01*
X194845000Y-156952609D01*
X194845000Y-156992391D01*
X194571555Y-156992391D01*
X194591446Y-156972500D01*
X194228537Y-156609591D01*
X194182500Y-156563553D01*
X194136463Y-156609591D01*
X194136462Y-156609592D01*
X193773553Y-156972499D01*
X193520000Y-156972499D01*
X193520000Y-156952609D01*
X193504776Y-156915855D01*
X193476645Y-156887724D01*
X193439891Y-156872500D01*
X193400109Y-156872500D01*
X193363355Y-156887724D01*
X193335224Y-156915855D01*
X193320000Y-156952609D01*
X193320000Y-156992391D01*
X193046555Y-156992391D01*
X193066446Y-156972500D01*
X192703537Y-156609591D01*
X192657500Y-156563553D01*
X192611463Y-156609591D01*
X192611462Y-156609592D01*
X192248553Y-156972499D01*
X191995000Y-156972499D01*
X191995000Y-156952609D01*
X191979776Y-156915855D01*
X191951645Y-156887724D01*
X191914891Y-156872500D01*
X191875109Y-156872500D01*
X191838355Y-156887724D01*
X191810224Y-156915855D01*
X191795000Y-156952609D01*
X191795000Y-156992391D01*
X191596105Y-156992391D01*
X191600627Y-156929166D01*
X191629128Y-156884819D01*
X191644999Y-156868947D01*
X191645000Y-156868946D01*
X191645000Y-156229891D01*
X192557500Y-156229891D01*
X192572724Y-156266645D01*
X192600855Y-156294776D01*
X192637609Y-156310000D01*
X192677391Y-156310000D01*
X192714145Y-156294776D01*
X192742276Y-156266645D01*
X192757500Y-156229891D01*
X194082500Y-156229891D01*
X194097724Y-156266645D01*
X194125855Y-156294776D01*
X194162609Y-156310000D01*
X194202391Y-156310000D01*
X194239145Y-156294776D01*
X194267276Y-156266645D01*
X194282500Y-156229891D01*
X194282500Y-156190109D01*
X194267276Y-156153355D01*
X194239145Y-156125224D01*
X194202391Y-156110000D01*
X194162609Y-156110000D01*
X194125855Y-156125224D01*
X194097724Y-156153355D01*
X194082500Y-156190109D01*
X194082500Y-156229891D01*
X192757500Y-156229891D01*
X192757500Y-156190109D01*
X192742276Y-156153355D01*
X192714145Y-156125224D01*
X192677391Y-156110000D01*
X192637609Y-156110000D01*
X192600855Y-156125224D01*
X192572724Y-156153355D01*
X192557500Y-156190109D01*
X192557500Y-156229891D01*
X191645000Y-156229891D01*
X191645000Y-156084000D01*
X191664685Y-156016961D01*
X191717489Y-155971206D01*
X191769000Y-155960000D01*
X192553947Y-155960000D01*
X192553947Y-155959999D01*
X192569819Y-155944128D01*
X192631142Y-155910643D01*
X192700834Y-155915627D01*
X192745181Y-155944128D01*
X192761053Y-155960000D01*
X193170000Y-155960000D01*
X193170000Y-155135000D01*
X193670000Y-155135000D01*
X193670000Y-155960000D01*
X194078947Y-155960000D01*
X194078947Y-155959999D01*
X194094819Y-155944128D01*
X194156142Y-155910643D01*
X194225834Y-155915627D01*
X194270181Y-155944128D01*
X194286053Y-155960000D01*
X195071000Y-155960000D01*
X195138039Y-155979685D01*
X195183794Y-156032489D01*
X195195000Y-156084000D01*
X195195000Y-156868947D01*
X195210872Y-156884819D01*
X195244357Y-156946142D01*
X195239373Y-157015834D01*
X195210872Y-157060181D01*
X195195000Y-157076052D01*
X195195000Y-157485000D01*
X196020000Y-157485000D01*
X196020000Y-155587172D01*
X196019999Y-155587155D01*
X196013598Y-155527627D01*
X196013596Y-155527620D01*
X195963354Y-155392913D01*
X195963350Y-155392906D01*
X195877190Y-155277812D01*
X195877187Y-155277809D01*
X195762093Y-155191649D01*
X195762086Y-155191645D01*
X195627379Y-155141403D01*
X195627372Y-155141401D01*
X195567844Y-155135000D01*
X193670000Y-155135000D01*
X193170000Y-155135000D01*
X191272155Y-155135000D01*
X191212627Y-155141401D01*
X191212620Y-155141403D01*
X191077913Y-155191645D01*
X191077906Y-155191649D01*
X190962812Y-155277809D01*
X190962809Y-155277812D01*
X190876649Y-155392906D01*
X190876645Y-155392913D01*
X190826403Y-155527620D01*
X190826401Y-155527627D01*
X190820000Y-155587155D01*
X190820000Y-157485000D01*
X185004236Y-157485000D01*
X184786819Y-157267583D01*
X184753334Y-157206260D01*
X184750500Y-157179902D01*
X184750500Y-148555000D01*
X185130000Y-148555000D01*
X185130000Y-149102844D01*
X185136401Y-149162372D01*
X185136403Y-149162379D01*
X185186645Y-149297086D01*
X185186649Y-149297093D01*
X185272809Y-149412187D01*
X185272812Y-149412190D01*
X185387906Y-149498350D01*
X185387913Y-149498354D01*
X185522620Y-149548596D01*
X185522627Y-149548598D01*
X185582155Y-149554999D01*
X185582172Y-149555000D01*
X185830000Y-149555000D01*
X185830000Y-148555000D01*
X185130000Y-148555000D01*
X184750500Y-148555000D01*
X184750500Y-148055000D01*
X185130000Y-148055000D01*
X185830000Y-148055000D01*
X185830000Y-147055000D01*
X185582155Y-147055000D01*
X185522627Y-147061401D01*
X185522620Y-147061403D01*
X185387913Y-147111645D01*
X185387906Y-147111649D01*
X185272812Y-147197809D01*
X185272809Y-147197812D01*
X185186649Y-147312906D01*
X185186645Y-147312913D01*
X185136403Y-147447620D01*
X185136401Y-147447627D01*
X185130000Y-147507155D01*
X185130000Y-148055000D01*
X184750500Y-148055000D01*
X184750500Y-139272000D01*
X193112551Y-139272000D01*
X193132317Y-139523151D01*
X193191126Y-139768110D01*
X193287533Y-140000859D01*
X193419160Y-140215653D01*
X193419161Y-140215656D01*
X193419164Y-140215659D01*
X193582776Y-140407224D01*
X193731066Y-140533875D01*
X193774343Y-140570838D01*
X193774346Y-140570839D01*
X193989140Y-140702466D01*
X194170077Y-140777412D01*
X194221889Y-140798873D01*
X194466852Y-140857683D01*
X194718000Y-140877449D01*
X194969148Y-140857683D01*
X195214111Y-140798873D01*
X195446859Y-140702466D01*
X195661659Y-140570836D01*
X195853224Y-140407224D01*
X196016836Y-140215659D01*
X196148466Y-140000859D01*
X196244873Y-139768111D01*
X196303683Y-139523148D01*
X196323449Y-139272000D01*
X196303683Y-139020852D01*
X196244873Y-138775889D01*
X196168757Y-138592128D01*
X196148466Y-138543140D01*
X196016839Y-138328346D01*
X196016838Y-138328343D01*
X195941991Y-138240709D01*
X195853224Y-138136776D01*
X195726571Y-138028604D01*
X195661656Y-137973161D01*
X195661653Y-137973160D01*
X195446859Y-137841533D01*
X195214110Y-137745126D01*
X194969151Y-137686317D01*
X194718000Y-137666551D01*
X194466848Y-137686317D01*
X194221889Y-137745126D01*
X193989140Y-137841533D01*
X193774346Y-137973160D01*
X193774343Y-137973161D01*
X193582776Y-138136776D01*
X193419161Y-138328343D01*
X193419160Y-138328346D01*
X193287533Y-138543140D01*
X193191126Y-138775889D01*
X193132317Y-139020848D01*
X193112551Y-139272000D01*
X184750500Y-139272000D01*
X184750500Y-136293060D01*
X184750501Y-136293047D01*
X184750501Y-136124944D01*
X184709576Y-135972214D01*
X184709573Y-135972209D01*
X184630524Y-135835290D01*
X184630518Y-135835282D01*
X183879417Y-135084181D01*
X183845932Y-135022858D01*
X183850916Y-134953166D01*
X183892788Y-134897233D01*
X183958252Y-134872816D01*
X183967098Y-134872500D01*
X186316331Y-134872500D01*
X186316347Y-134872501D01*
X186323943Y-134872501D01*
X186482054Y-134872501D01*
X186482057Y-134872501D01*
X186634785Y-134831577D01*
X186684904Y-134802639D01*
X186771716Y-134752520D01*
X186883520Y-134640716D01*
X186883520Y-134640714D01*
X186893728Y-134630507D01*
X186893729Y-134630504D01*
X187252233Y-134272000D01*
X193112551Y-134272000D01*
X193132317Y-134523151D01*
X193191126Y-134768110D01*
X193287533Y-135000859D01*
X193419160Y-135215653D01*
X193419161Y-135215656D01*
X193419164Y-135215659D01*
X193582776Y-135407224D01*
X193731066Y-135533875D01*
X193774343Y-135570838D01*
X193774346Y-135570839D01*
X193989140Y-135702466D01*
X194152043Y-135769942D01*
X194221889Y-135798873D01*
X194466852Y-135857683D01*
X194718000Y-135877449D01*
X194969148Y-135857683D01*
X195214111Y-135798873D01*
X195446859Y-135702466D01*
X195661659Y-135570836D01*
X195853224Y-135407224D01*
X196016836Y-135215659D01*
X196148466Y-135000859D01*
X196244873Y-134768111D01*
X196303683Y-134523148D01*
X196323449Y-134272000D01*
X196303683Y-134020852D01*
X196244873Y-133775889D01*
X196148466Y-133543141D01*
X196148466Y-133543140D01*
X196016839Y-133328346D01*
X196016838Y-133328343D01*
X195979875Y-133285066D01*
X195853224Y-133136776D01*
X195726571Y-133028604D01*
X195661656Y-132973161D01*
X195661653Y-132973160D01*
X195446859Y-132841533D01*
X195214110Y-132745126D01*
X194969151Y-132686317D01*
X194718000Y-132666551D01*
X194466848Y-132686317D01*
X194221889Y-132745126D01*
X193989140Y-132841533D01*
X193774346Y-132973160D01*
X193774343Y-132973161D01*
X193582776Y-133136776D01*
X193419161Y-133328343D01*
X193419160Y-133328346D01*
X193287533Y-133543140D01*
X193191126Y-133775889D01*
X193132317Y-134020848D01*
X193112551Y-134272000D01*
X187252233Y-134272000D01*
X194328536Y-127195698D01*
X194389857Y-127162215D01*
X194402310Y-127160163D01*
X194489255Y-127150368D01*
X194659522Y-127090789D01*
X194812262Y-126994816D01*
X194939816Y-126867262D01*
X195035789Y-126714522D01*
X195095368Y-126544255D01*
X195115565Y-126365000D01*
X195112419Y-126337081D01*
X195095369Y-126185750D01*
X195095368Y-126185745D01*
X195035788Y-126015476D01*
X194974962Y-125918673D01*
X194939816Y-125862738D01*
X194812262Y-125735184D01*
X194775787Y-125712265D01*
X194659523Y-125639211D01*
X194489254Y-125579631D01*
X194489249Y-125579630D01*
X194310004Y-125559435D01*
X194309996Y-125559435D01*
X194130750Y-125579630D01*
X194130745Y-125579631D01*
X193960476Y-125639211D01*
X193807737Y-125735184D01*
X193680184Y-125862737D01*
X193584210Y-126015478D01*
X193524630Y-126185750D01*
X193514837Y-126272667D01*
X193487770Y-126337081D01*
X193479298Y-126346464D01*
X193219141Y-126606620D01*
X193157818Y-126640105D01*
X193088126Y-126635121D01*
X193060912Y-126615000D01*
X192085686Y-126615000D01*
X192090080Y-126610606D01*
X192142741Y-126519394D01*
X192170000Y-126417661D01*
X192170000Y-126312339D01*
X192142741Y-126210606D01*
X192090080Y-126119394D01*
X192085686Y-126115000D01*
X193048872Y-126115000D01*
X193048872Y-126114999D01*
X192996269Y-125918682D01*
X192996265Y-125918673D01*
X192900134Y-125712517D01*
X192769657Y-125526179D01*
X192608820Y-125365342D01*
X192495616Y-125286075D01*
X192451991Y-125231497D01*
X192444799Y-125161999D01*
X192476321Y-125099644D01*
X192536551Y-125064231D01*
X192566740Y-125060500D01*
X194644903Y-125060500D01*
X194711942Y-125080185D01*
X194732584Y-125096819D01*
X198345181Y-128709416D01*
X198378666Y-128770739D01*
X198381500Y-128797097D01*
X198381500Y-132705511D01*
X198361815Y-132772550D01*
X198309011Y-132818305D01*
X198304953Y-132820072D01*
X198253140Y-132841533D01*
X198038346Y-132973160D01*
X198038343Y-132973161D01*
X197846776Y-133136776D01*
X197683161Y-133328343D01*
X197683160Y-133328346D01*
X197551533Y-133543140D01*
X197455126Y-133775889D01*
X197396317Y-134020848D01*
X197376551Y-134272000D01*
X197396317Y-134523151D01*
X197455126Y-134768110D01*
X197551533Y-135000859D01*
X197683160Y-135215653D01*
X197683161Y-135215656D01*
X197683164Y-135215659D01*
X197846776Y-135407224D01*
X197995066Y-135533875D01*
X198038343Y-135570838D01*
X198038346Y-135570839D01*
X198253140Y-135702466D01*
X198416043Y-135769942D01*
X198485889Y-135798873D01*
X198730852Y-135857683D01*
X198982000Y-135877449D01*
X199233148Y-135857683D01*
X199478111Y-135798873D01*
X199610048Y-135744222D01*
X199679516Y-135736754D01*
X199741996Y-135768029D01*
X199777648Y-135828118D01*
X199781500Y-135858784D01*
X199781500Y-137571902D01*
X199761815Y-137638941D01*
X199745181Y-137659584D01*
X199665056Y-137739708D01*
X199603732Y-137773192D01*
X199534041Y-137768207D01*
X199529923Y-137766587D01*
X199478113Y-137745127D01*
X199233151Y-137686317D01*
X198982000Y-137666551D01*
X198730848Y-137686317D01*
X198485889Y-137745126D01*
X198253140Y-137841533D01*
X198038346Y-137973160D01*
X198038343Y-137973161D01*
X197846776Y-138136776D01*
X197683161Y-138328343D01*
X197683160Y-138328346D01*
X197551533Y-138543140D01*
X197455126Y-138775889D01*
X197396317Y-139020848D01*
X197376551Y-139272000D01*
X197396317Y-139523151D01*
X197455126Y-139768110D01*
X197551533Y-140000859D01*
X197683160Y-140215653D01*
X197683161Y-140215656D01*
X197683164Y-140215659D01*
X197846776Y-140407224D01*
X197995066Y-140533875D01*
X198038343Y-140570838D01*
X198038346Y-140570839D01*
X198253140Y-140702466D01*
X198434077Y-140777412D01*
X198485889Y-140798873D01*
X198730852Y-140857683D01*
X198982000Y-140877449D01*
X199233148Y-140857683D01*
X199478111Y-140798873D01*
X199710859Y-140702466D01*
X199925659Y-140570836D01*
X200117224Y-140407224D01*
X200280836Y-140215659D01*
X200412466Y-140000859D01*
X200508873Y-139768111D01*
X200567683Y-139523148D01*
X200587449Y-139272000D01*
X209876551Y-139272000D01*
X209896317Y-139523151D01*
X209955126Y-139768110D01*
X210051533Y-140000859D01*
X210183160Y-140215653D01*
X210183161Y-140215656D01*
X210183164Y-140215659D01*
X210346776Y-140407224D01*
X210495066Y-140533875D01*
X210538343Y-140570838D01*
X210538346Y-140570839D01*
X210753140Y-140702466D01*
X210934077Y-140777412D01*
X210985889Y-140798873D01*
X211230852Y-140857683D01*
X211482000Y-140877449D01*
X211733148Y-140857683D01*
X211978111Y-140798873D01*
X212210859Y-140702466D01*
X212425659Y-140570836D01*
X212617224Y-140407224D01*
X212780836Y-140215659D01*
X212912466Y-140000859D01*
X213008873Y-139768111D01*
X213067683Y-139523148D01*
X213087449Y-139272000D01*
X213067683Y-139020852D01*
X213008873Y-138775889D01*
X212932757Y-138592128D01*
X212912466Y-138543140D01*
X212780839Y-138328346D01*
X212780838Y-138328343D01*
X212705991Y-138240709D01*
X212617224Y-138136776D01*
X212490571Y-138028604D01*
X212425656Y-137973161D01*
X212425653Y-137973160D01*
X212210859Y-137841533D01*
X211978110Y-137745126D01*
X211733151Y-137686317D01*
X211482000Y-137666551D01*
X211230848Y-137686317D01*
X210985889Y-137745126D01*
X210753140Y-137841533D01*
X210538346Y-137973160D01*
X210538343Y-137973161D01*
X210346776Y-138136776D01*
X210183161Y-138328343D01*
X210183160Y-138328346D01*
X210051533Y-138543140D01*
X209955126Y-138775889D01*
X209896317Y-139020848D01*
X209876551Y-139272000D01*
X200587449Y-139272000D01*
X200567683Y-139020852D01*
X200508873Y-138775889D01*
X200487410Y-138724073D01*
X200479942Y-138654607D01*
X200511216Y-138592128D01*
X200514263Y-138588970D01*
X200740506Y-138362728D01*
X200740511Y-138362724D01*
X200750714Y-138352520D01*
X200750716Y-138352520D01*
X200862520Y-138240716D01*
X200915917Y-138148229D01*
X200922520Y-138136793D01*
X200922523Y-138136784D01*
X200922529Y-138136776D01*
X200941577Y-138103785D01*
X200982501Y-137951057D01*
X200982501Y-137792943D01*
X200982501Y-137785348D01*
X200982500Y-137785330D01*
X200982500Y-134272000D01*
X209876551Y-134272000D01*
X209896317Y-134523151D01*
X209955126Y-134768110D01*
X210051533Y-135000859D01*
X210183160Y-135215653D01*
X210183161Y-135215656D01*
X210183164Y-135215659D01*
X210346776Y-135407224D01*
X210495066Y-135533875D01*
X210538343Y-135570838D01*
X210538346Y-135570839D01*
X210753140Y-135702466D01*
X210916043Y-135769942D01*
X210985889Y-135798873D01*
X211230852Y-135857683D01*
X211482000Y-135877449D01*
X211733148Y-135857683D01*
X211978111Y-135798873D01*
X212210859Y-135702466D01*
X212425659Y-135570836D01*
X212617224Y-135407224D01*
X212780836Y-135215659D01*
X212912466Y-135000859D01*
X213008873Y-134768111D01*
X213067683Y-134523148D01*
X213087449Y-134272000D01*
X213067683Y-134020852D01*
X213008873Y-133775889D01*
X212912466Y-133543141D01*
X212912466Y-133543140D01*
X212780839Y-133328346D01*
X212780838Y-133328343D01*
X212743875Y-133285066D01*
X212617224Y-133136776D01*
X212490571Y-133028604D01*
X212425656Y-132973161D01*
X212425653Y-132973160D01*
X212210859Y-132841533D01*
X211978110Y-132745126D01*
X211733151Y-132686317D01*
X211482000Y-132666551D01*
X211230848Y-132686317D01*
X210985889Y-132745126D01*
X210753140Y-132841533D01*
X210538346Y-132973160D01*
X210538343Y-132973161D01*
X210346776Y-133136776D01*
X210183161Y-133328343D01*
X210183160Y-133328346D01*
X210051533Y-133543140D01*
X209955126Y-133775889D01*
X209896317Y-134020848D01*
X209876551Y-134272000D01*
X200982500Y-134272000D01*
X200982500Y-127625059D01*
X200982501Y-127625046D01*
X200982501Y-127527373D01*
X201002186Y-127460334D01*
X201054990Y-127414579D01*
X201124148Y-127404635D01*
X201177622Y-127425797D01*
X201277266Y-127495568D01*
X201483504Y-127591739D01*
X201703308Y-127650635D01*
X201865230Y-127664801D01*
X201929998Y-127670468D01*
X201930000Y-127670468D01*
X201930002Y-127670468D01*
X201986673Y-127665509D01*
X202156692Y-127650635D01*
X202376496Y-127591739D01*
X202582734Y-127495568D01*
X202769139Y-127365047D01*
X202930047Y-127204139D01*
X203060568Y-127017734D01*
X203156739Y-126811496D01*
X203215635Y-126591692D01*
X203235468Y-126365000D01*
X203233025Y-126337081D01*
X203221960Y-126210606D01*
X203215635Y-126138308D01*
X203156739Y-125918504D01*
X203060568Y-125712266D01*
X202953556Y-125559435D01*
X202930045Y-125525858D01*
X202769141Y-125364954D01*
X202582734Y-125234432D01*
X202582732Y-125234431D01*
X202376497Y-125138261D01*
X202376488Y-125138258D01*
X202156697Y-125079366D01*
X202156693Y-125079365D01*
X202156692Y-125079365D01*
X202156691Y-125079364D01*
X202156686Y-125079364D01*
X201930002Y-125059532D01*
X201929998Y-125059532D01*
X201703313Y-125079364D01*
X201703302Y-125079366D01*
X201483511Y-125138258D01*
X201483502Y-125138261D01*
X201277267Y-125234431D01*
X201277265Y-125234432D01*
X201090858Y-125364954D01*
X200929954Y-125525858D01*
X200799432Y-125712265D01*
X200799431Y-125712267D01*
X200703261Y-125918502D01*
X200703258Y-125918511D01*
X200644366Y-126138302D01*
X200644364Y-126138313D01*
X200624532Y-126364998D01*
X200624532Y-126365001D01*
X200644364Y-126591686D01*
X200644367Y-126591700D01*
X200655421Y-126632957D01*
X200653757Y-126702807D01*
X200614594Y-126760669D01*
X200550365Y-126788172D01*
X200481463Y-126776585D01*
X200447965Y-126752730D01*
X198155236Y-124460001D01*
X206974532Y-124460001D01*
X206994364Y-124686686D01*
X206994366Y-124686697D01*
X207053258Y-124906488D01*
X207053261Y-124906497D01*
X207149431Y-125112732D01*
X207149432Y-125112734D01*
X207279954Y-125299141D01*
X207440858Y-125460045D01*
X207440861Y-125460047D01*
X207627266Y-125590568D01*
X207833504Y-125686739D01*
X208053308Y-125745635D01*
X208215230Y-125759801D01*
X208279998Y-125765468D01*
X208280000Y-125765468D01*
X208280002Y-125765468D01*
X208336673Y-125760509D01*
X208506692Y-125745635D01*
X208726496Y-125686739D01*
X208932734Y-125590568D01*
X209119139Y-125460047D01*
X209280047Y-125299139D01*
X209410568Y-125112734D01*
X209506739Y-124906496D01*
X209565635Y-124686692D01*
X209585468Y-124460002D01*
X212055034Y-124460002D01*
X212074858Y-124686599D01*
X212074860Y-124686610D01*
X212133730Y-124906317D01*
X212133735Y-124906331D01*
X212229863Y-125112478D01*
X212280974Y-125185472D01*
X212960000Y-124506446D01*
X212960000Y-124512661D01*
X212987259Y-124614394D01*
X213039920Y-124705606D01*
X213114394Y-124780080D01*
X213205606Y-124832741D01*
X213307339Y-124860000D01*
X213313553Y-124860000D01*
X212634526Y-125539025D01*
X212707513Y-125590132D01*
X212707521Y-125590136D01*
X212913668Y-125686264D01*
X212913682Y-125686269D01*
X213133389Y-125745139D01*
X213133400Y-125745141D01*
X213359998Y-125764966D01*
X213360002Y-125764966D01*
X213586599Y-125745141D01*
X213586610Y-125745139D01*
X213806317Y-125686269D01*
X213806331Y-125686264D01*
X214012478Y-125590136D01*
X214085471Y-125539024D01*
X213406447Y-124860000D01*
X213412661Y-124860000D01*
X213514394Y-124832741D01*
X213605606Y-124780080D01*
X213680080Y-124705606D01*
X213732741Y-124614394D01*
X213760000Y-124512661D01*
X213760000Y-124506447D01*
X214439024Y-125185471D01*
X214490136Y-125112478D01*
X214586264Y-124906331D01*
X214586269Y-124906317D01*
X214645139Y-124686610D01*
X214645141Y-124686599D01*
X214664966Y-124460002D01*
X214664966Y-124459997D01*
X214645141Y-124233400D01*
X214645139Y-124233389D01*
X214586269Y-124013682D01*
X214586264Y-124013668D01*
X214490136Y-123807521D01*
X214490132Y-123807513D01*
X214439025Y-123734526D01*
X213760000Y-124413551D01*
X213760000Y-124407339D01*
X213732741Y-124305606D01*
X213680080Y-124214394D01*
X213605606Y-124139920D01*
X213514394Y-124087259D01*
X213412661Y-124060000D01*
X213406448Y-124060000D01*
X214085472Y-123380974D01*
X214012478Y-123329863D01*
X213806331Y-123233735D01*
X213806317Y-123233730D01*
X213586610Y-123174860D01*
X213586599Y-123174858D01*
X213360002Y-123155034D01*
X213359998Y-123155034D01*
X213133400Y-123174858D01*
X213133389Y-123174860D01*
X212913682Y-123233730D01*
X212913673Y-123233734D01*
X212707516Y-123329866D01*
X212707512Y-123329868D01*
X212634526Y-123380973D01*
X212634526Y-123380974D01*
X213313553Y-124060000D01*
X213307339Y-124060000D01*
X213205606Y-124087259D01*
X213114394Y-124139920D01*
X213039920Y-124214394D01*
X212987259Y-124305606D01*
X212960000Y-124407339D01*
X212960000Y-124413552D01*
X212280974Y-123734526D01*
X212280973Y-123734526D01*
X212229868Y-123807512D01*
X212229866Y-123807516D01*
X212133734Y-124013673D01*
X212133730Y-124013682D01*
X212074860Y-124233389D01*
X212074858Y-124233400D01*
X212055034Y-124459997D01*
X212055034Y-124460002D01*
X209585468Y-124460002D01*
X209585468Y-124460000D01*
X209565635Y-124233308D01*
X209539847Y-124137066D01*
X209541510Y-124067217D01*
X209571939Y-124017294D01*
X211178506Y-122410728D01*
X211178511Y-122410724D01*
X211188714Y-122400520D01*
X211188716Y-122400520D01*
X211300520Y-122288716D01*
X211379577Y-122151784D01*
X211420500Y-121999057D01*
X211420500Y-117140096D01*
X211440185Y-117073057D01*
X211456814Y-117052420D01*
X212917294Y-115591939D01*
X212978615Y-115558456D01*
X213037066Y-115559847D01*
X213056604Y-115565082D01*
X213133308Y-115585635D01*
X213295230Y-115599801D01*
X213359998Y-115605468D01*
X213360000Y-115605468D01*
X213360002Y-115605468D01*
X213416673Y-115600509D01*
X213586692Y-115585635D01*
X213806496Y-115526739D01*
X214012734Y-115430568D01*
X214199139Y-115300047D01*
X214360047Y-115139139D01*
X214490568Y-114952734D01*
X214586739Y-114746496D01*
X214645635Y-114526692D01*
X214665468Y-114300000D01*
X214645635Y-114073308D01*
X214586739Y-113853504D01*
X214490568Y-113647266D01*
X214360047Y-113460861D01*
X214360045Y-113460858D01*
X214199141Y-113299954D01*
X214012734Y-113169432D01*
X214012732Y-113169431D01*
X213806497Y-113073261D01*
X213806488Y-113073258D01*
X213586697Y-113014366D01*
X213586693Y-113014365D01*
X213586692Y-113014365D01*
X213586691Y-113014364D01*
X213586686Y-113014364D01*
X213360002Y-112994532D01*
X213359998Y-112994532D01*
X213133313Y-113014364D01*
X213133302Y-113014366D01*
X212913511Y-113073258D01*
X212913502Y-113073261D01*
X212707267Y-113169431D01*
X212707265Y-113169432D01*
X212520858Y-113299954D01*
X212359954Y-113460858D01*
X212229432Y-113647265D01*
X212229431Y-113647267D01*
X212133261Y-113853502D01*
X212133258Y-113853511D01*
X212074366Y-114073302D01*
X212074364Y-114073313D01*
X212054532Y-114299998D01*
X212054532Y-114300001D01*
X212074364Y-114526686D01*
X212074366Y-114526697D01*
X212100152Y-114622931D01*
X212098489Y-114692781D01*
X212068058Y-114742705D01*
X210451286Y-116359478D01*
X210339481Y-116471282D01*
X210339479Y-116471285D01*
X210289361Y-116558094D01*
X210289359Y-116558096D01*
X210260425Y-116608209D01*
X210260424Y-116608210D01*
X210260423Y-116608215D01*
X210219499Y-116760943D01*
X210219499Y-116760945D01*
X210219499Y-116929046D01*
X210219500Y-116929059D01*
X210219500Y-121619902D01*
X210199815Y-121686941D01*
X210183181Y-121707583D01*
X208722705Y-123168058D01*
X208661382Y-123201543D01*
X208602931Y-123200152D01*
X208506697Y-123174366D01*
X208506693Y-123174365D01*
X208506692Y-123174365D01*
X208506691Y-123174364D01*
X208506686Y-123174364D01*
X208280002Y-123154532D01*
X208279998Y-123154532D01*
X208053313Y-123174364D01*
X208053302Y-123174366D01*
X207833511Y-123233258D01*
X207833502Y-123233261D01*
X207627267Y-123329431D01*
X207627265Y-123329432D01*
X207440858Y-123459954D01*
X207279954Y-123620858D01*
X207149432Y-123807265D01*
X207149431Y-123807267D01*
X207053261Y-124013502D01*
X207053258Y-124013511D01*
X206994366Y-124233302D01*
X206994364Y-124233313D01*
X206974532Y-124459998D01*
X206974532Y-124460001D01*
X198155236Y-124460001D01*
X192194292Y-118499057D01*
X192160807Y-118437734D01*
X192165791Y-118368042D01*
X192167412Y-118363923D01*
X192188872Y-118312113D01*
X192188871Y-118312113D01*
X192188873Y-118312111D01*
X192247683Y-118067148D01*
X192267449Y-117816000D01*
X192247683Y-117564852D01*
X192188873Y-117319889D01*
X192188872Y-117319886D01*
X192167412Y-117268076D01*
X192159943Y-117198606D01*
X192191218Y-117136127D01*
X192194262Y-117132972D01*
X193120417Y-116206819D01*
X193181740Y-116173334D01*
X193208098Y-116170500D01*
X202344374Y-116170500D01*
X202411413Y-116190185D01*
X202457168Y-116242989D01*
X202467112Y-116312147D01*
X202438087Y-116375703D01*
X202409164Y-116400227D01*
X202218346Y-116517160D01*
X202218343Y-116517161D01*
X202026776Y-116680776D01*
X201863161Y-116872343D01*
X201863160Y-116872346D01*
X201731533Y-117087140D01*
X201635126Y-117319889D01*
X201576317Y-117564848D01*
X201556551Y-117816000D01*
X201576317Y-118067151D01*
X201635126Y-118312110D01*
X201731533Y-118544859D01*
X201863160Y-118759653D01*
X201863161Y-118759656D01*
X201863164Y-118759659D01*
X202026776Y-118951224D01*
X202175066Y-119077875D01*
X202218343Y-119114838D01*
X202218346Y-119114839D01*
X202433140Y-119246466D01*
X202614077Y-119321412D01*
X202665889Y-119342873D01*
X202910852Y-119401683D01*
X203162000Y-119421449D01*
X203413148Y-119401683D01*
X203658111Y-119342873D01*
X203890859Y-119246466D01*
X204105659Y-119114836D01*
X204297224Y-118951224D01*
X204460836Y-118759659D01*
X204592466Y-118544859D01*
X204688873Y-118312111D01*
X204747683Y-118067148D01*
X204767449Y-117816000D01*
X204747683Y-117564852D01*
X204688873Y-117319889D01*
X204688872Y-117319886D01*
X204592466Y-117087140D01*
X204460839Y-116872346D01*
X204460838Y-116872343D01*
X204423875Y-116829066D01*
X204297224Y-116680776D01*
X204153582Y-116558094D01*
X204105656Y-116517161D01*
X204105653Y-116517160D01*
X203914836Y-116400227D01*
X203867961Y-116348416D01*
X203856538Y-116279486D01*
X203884195Y-116215323D01*
X203942151Y-116176298D01*
X203979626Y-116170500D01*
X206923331Y-116170500D01*
X206923347Y-116170501D01*
X206930943Y-116170501D01*
X207089054Y-116170501D01*
X207089057Y-116170501D01*
X207241785Y-116129577D01*
X207291904Y-116100639D01*
X207378716Y-116050520D01*
X207490520Y-115938716D01*
X207490520Y-115938714D01*
X207500728Y-115928507D01*
X207500730Y-115928504D01*
X207837294Y-115591939D01*
X207898615Y-115558456D01*
X207957066Y-115559847D01*
X207976604Y-115565082D01*
X208053308Y-115585635D01*
X208215230Y-115599801D01*
X208279998Y-115605468D01*
X208280000Y-115605468D01*
X208280002Y-115605468D01*
X208336673Y-115600509D01*
X208506692Y-115585635D01*
X208726496Y-115526739D01*
X208932734Y-115430568D01*
X209119139Y-115300047D01*
X209280047Y-115139139D01*
X209410568Y-114952734D01*
X209506739Y-114746496D01*
X209565635Y-114526692D01*
X209585468Y-114300000D01*
X209565635Y-114073308D01*
X209506739Y-113853504D01*
X209410568Y-113647266D01*
X209280047Y-113460861D01*
X209280045Y-113460858D01*
X209119141Y-113299954D01*
X208932734Y-113169432D01*
X208932732Y-113169431D01*
X208726497Y-113073261D01*
X208726488Y-113073258D01*
X208506697Y-113014366D01*
X208506693Y-113014365D01*
X208506692Y-113014365D01*
X208506691Y-113014364D01*
X208506686Y-113014364D01*
X208280002Y-112994532D01*
X208279998Y-112994532D01*
X208053313Y-113014364D01*
X208053302Y-113014366D01*
X207833511Y-113073258D01*
X207833502Y-113073261D01*
X207627267Y-113169431D01*
X207627265Y-113169432D01*
X207440858Y-113299954D01*
X207279954Y-113460858D01*
X207149432Y-113647265D01*
X207149431Y-113647267D01*
X207053261Y-113853502D01*
X207053258Y-113853511D01*
X206994366Y-114073302D01*
X206994364Y-114073313D01*
X206974532Y-114299998D01*
X206974532Y-114300001D01*
X206994364Y-114526686D01*
X206994366Y-114526697D01*
X207020152Y-114622931D01*
X207018489Y-114692781D01*
X206988058Y-114742705D01*
X206797582Y-114933182D01*
X206736262Y-114966666D01*
X206709903Y-114969500D01*
X192994670Y-114969500D01*
X192994654Y-114969499D01*
X192987058Y-114969499D01*
X192828943Y-114969499D01*
X192752579Y-114989961D01*
X192676214Y-115010423D01*
X192676209Y-115010426D01*
X192539290Y-115089475D01*
X192539282Y-115089481D01*
X191345055Y-116283707D01*
X191283732Y-116317192D01*
X191214040Y-116312208D01*
X191209922Y-116310587D01*
X191158113Y-116289127D01*
X191040970Y-116261004D01*
X190947625Y-116238594D01*
X190887035Y-116203805D01*
X190854871Y-116141778D01*
X190861347Y-116072209D01*
X190888891Y-116030342D01*
X194103234Y-112816000D01*
X201556551Y-112816000D01*
X201576317Y-113067151D01*
X201635126Y-113312110D01*
X201731533Y-113544859D01*
X201863160Y-113759653D01*
X201863161Y-113759656D01*
X201863164Y-113759659D01*
X202026776Y-113951224D01*
X202142427Y-114049999D01*
X202218343Y-114114838D01*
X202218346Y-114114839D01*
X202433140Y-114246466D01*
X202562379Y-114299998D01*
X202665889Y-114342873D01*
X202910852Y-114401683D01*
X203162000Y-114421449D01*
X203413148Y-114401683D01*
X203658111Y-114342873D01*
X203890859Y-114246466D01*
X204105659Y-114114836D01*
X204297224Y-113951224D01*
X204460836Y-113759659D01*
X204592466Y-113544859D01*
X204688873Y-113312111D01*
X204747683Y-113067148D01*
X204767449Y-112816000D01*
X204747683Y-112564852D01*
X204688873Y-112319889D01*
X204592466Y-112087141D01*
X204592466Y-112087140D01*
X204460839Y-111872346D01*
X204460838Y-111872343D01*
X204371740Y-111768023D01*
X204297224Y-111680776D01*
X204170571Y-111572604D01*
X204105656Y-111517161D01*
X204105653Y-111517160D01*
X203890859Y-111385533D01*
X203658110Y-111289126D01*
X203413151Y-111230317D01*
X203162000Y-111210551D01*
X202910848Y-111230317D01*
X202665889Y-111289126D01*
X202433140Y-111385533D01*
X202218346Y-111517160D01*
X202218343Y-111517161D01*
X202026776Y-111680776D01*
X201863161Y-111872343D01*
X201863160Y-111872346D01*
X201731533Y-112087140D01*
X201635126Y-112319889D01*
X201576317Y-112564848D01*
X201556551Y-112816000D01*
X194103234Y-112816000D01*
X198367416Y-108551819D01*
X198428739Y-108518334D01*
X198455097Y-108515500D01*
X209457680Y-108515500D01*
X209524719Y-108535185D01*
X209556948Y-108565191D01*
X209562454Y-108572546D01*
X209562457Y-108572548D01*
X209677664Y-108658793D01*
X209677671Y-108658797D01*
X209812517Y-108709091D01*
X209812516Y-108709091D01*
X209819444Y-108709835D01*
X209872127Y-108715500D01*
X211767872Y-108715499D01*
X211827483Y-108709091D01*
X211962331Y-108658796D01*
X212077546Y-108572546D01*
X212163796Y-108457331D01*
X212214091Y-108322483D01*
X212220500Y-108262873D01*
X212220499Y-106367128D01*
X212214091Y-106307517D01*
X212204350Y-106281401D01*
X212163797Y-106172671D01*
X212163793Y-106172664D01*
X212077547Y-106057455D01*
X212077544Y-106057452D01*
X211962335Y-105971206D01*
X211962328Y-105971202D01*
X211882094Y-105941277D01*
X211826160Y-105899406D01*
X211801743Y-105833941D01*
X211816595Y-105765668D01*
X211834190Y-105741121D01*
X211928979Y-105638153D01*
X212055924Y-105443849D01*
X212149157Y-105231300D01*
X212206134Y-105006305D01*
X212206135Y-105006297D01*
X212225300Y-104775006D01*
X212225300Y-104774993D01*
X212206135Y-104543702D01*
X212206133Y-104543691D01*
X212149157Y-104318699D01*
X212055924Y-104106151D01*
X211928983Y-103911852D01*
X211928980Y-103911849D01*
X211928979Y-103911847D01*
X211771784Y-103741087D01*
X211771779Y-103741083D01*
X211771777Y-103741081D01*
X211588634Y-103598535D01*
X211588628Y-103598531D01*
X211384504Y-103488064D01*
X211384495Y-103488061D01*
X211164984Y-103412702D01*
X210993282Y-103384050D01*
X210936049Y-103374500D01*
X210703951Y-103374500D01*
X210658164Y-103382140D01*
X210475015Y-103412702D01*
X210255504Y-103488061D01*
X210255495Y-103488064D01*
X210051371Y-103598531D01*
X210051365Y-103598535D01*
X209868222Y-103741081D01*
X209868219Y-103741084D01*
X209711016Y-103911852D01*
X209584075Y-104106151D01*
X209490842Y-104318699D01*
X209433866Y-104543691D01*
X209433864Y-104543702D01*
X209414700Y-104774993D01*
X209414700Y-104775006D01*
X209433864Y-105006297D01*
X209433866Y-105006308D01*
X209490842Y-105231300D01*
X209584075Y-105443848D01*
X209711016Y-105638147D01*
X209711019Y-105638151D01*
X209711021Y-105638153D01*
X209805803Y-105741114D01*
X209836724Y-105803767D01*
X209828864Y-105873193D01*
X209784716Y-105927348D01*
X209757906Y-105941277D01*
X209677669Y-105971203D01*
X209677664Y-105971206D01*
X209562455Y-106057452D01*
X209562452Y-106057455D01*
X209476206Y-106172664D01*
X209476202Y-106172671D01*
X209425908Y-106307517D01*
X209419501Y-106367116D01*
X209419501Y-106367123D01*
X209419500Y-106367135D01*
X209419500Y-107190500D01*
X209399815Y-107257539D01*
X209347011Y-107303294D01*
X209295500Y-107314500D01*
X205094500Y-107314500D01*
X205027461Y-107294815D01*
X204981706Y-107242011D01*
X204970500Y-107190500D01*
X204970500Y-102224500D01*
X204990185Y-102157461D01*
X205042989Y-102111706D01*
X205094500Y-102100500D01*
X215275500Y-102100500D01*
X215342539Y-102120185D01*
X215388294Y-102172989D01*
X215399500Y-102224500D01*
X215399500Y-170825500D01*
X215379815Y-170892539D01*
X215327011Y-170938294D01*
X215275500Y-170949500D01*
X178424500Y-170949500D01*
X178357461Y-170929815D01*
X178311706Y-170877011D01*
X178300500Y-170825500D01*
X178300500Y-166055000D01*
X185130000Y-166055000D01*
X185130000Y-166602844D01*
X185136401Y-166662372D01*
X185136403Y-166662379D01*
X185186645Y-166797086D01*
X185186649Y-166797093D01*
X185272809Y-166912187D01*
X185272812Y-166912190D01*
X185387906Y-166998350D01*
X185387913Y-166998354D01*
X185522620Y-167048596D01*
X185522627Y-167048598D01*
X185582155Y-167054999D01*
X185582172Y-167055000D01*
X185830000Y-167055000D01*
X185830000Y-166055000D01*
X185130000Y-166055000D01*
X178300500Y-166055000D01*
X178300500Y-165555000D01*
X185130000Y-165555000D01*
X185830000Y-165555000D01*
X185830000Y-164555000D01*
X185582155Y-164555000D01*
X185522627Y-164561401D01*
X185522620Y-164561403D01*
X185387913Y-164611645D01*
X185387906Y-164611649D01*
X185272812Y-164697809D01*
X185272809Y-164697812D01*
X185186649Y-164812906D01*
X185186645Y-164812913D01*
X185136403Y-164947620D01*
X185136401Y-164947627D01*
X185130000Y-165007155D01*
X185130000Y-165555000D01*
X178300500Y-165555000D01*
X178300500Y-114049999D01*
X180331127Y-114049999D01*
X180331128Y-114050000D01*
X181294314Y-114050000D01*
X181289920Y-114054394D01*
X181237259Y-114145606D01*
X181210000Y-114247339D01*
X181210000Y-114352661D01*
X181237259Y-114454394D01*
X181289920Y-114545606D01*
X181294314Y-114550000D01*
X180331128Y-114550000D01*
X180383730Y-114746317D01*
X180383734Y-114746326D01*
X180479865Y-114952482D01*
X180610342Y-115138820D01*
X180771179Y-115299657D01*
X180957517Y-115430134D01*
X181163673Y-115526265D01*
X181163682Y-115526269D01*
X181359999Y-115578872D01*
X181360000Y-115578871D01*
X181360000Y-114615686D01*
X181364394Y-114620080D01*
X181455606Y-114672741D01*
X181557339Y-114700000D01*
X181662661Y-114700000D01*
X181764394Y-114672741D01*
X181855606Y-114620080D01*
X181860000Y-114615686D01*
X181860000Y-115578872D01*
X182056317Y-115526269D01*
X182056326Y-115526265D01*
X182262482Y-115430134D01*
X182448820Y-115299657D01*
X182609657Y-115138820D01*
X182740134Y-114952482D01*
X182836265Y-114746326D01*
X182836269Y-114746317D01*
X182888872Y-114550000D01*
X181925686Y-114550000D01*
X181930080Y-114545606D01*
X181982741Y-114454394D01*
X182010000Y-114352661D01*
X182010000Y-114247339D01*
X181982741Y-114145606D01*
X181930080Y-114054394D01*
X181925686Y-114050000D01*
X182888872Y-114050000D01*
X182888872Y-114049999D01*
X185411127Y-114049999D01*
X185411128Y-114050000D01*
X186374314Y-114050000D01*
X186369920Y-114054394D01*
X186317259Y-114145606D01*
X186290000Y-114247339D01*
X186290000Y-114352661D01*
X186317259Y-114454394D01*
X186369920Y-114545606D01*
X186374314Y-114550000D01*
X185411128Y-114550000D01*
X185463730Y-114746317D01*
X185463734Y-114746326D01*
X185559865Y-114952482D01*
X185690342Y-115138820D01*
X185851179Y-115299657D01*
X186037517Y-115430134D01*
X186243673Y-115526265D01*
X186243682Y-115526269D01*
X186439999Y-115578872D01*
X186440000Y-115578871D01*
X186440000Y-114615686D01*
X186444394Y-114620080D01*
X186535606Y-114672741D01*
X186637339Y-114700000D01*
X186742661Y-114700000D01*
X186844394Y-114672741D01*
X186935606Y-114620080D01*
X186940000Y-114615686D01*
X186940000Y-115578872D01*
X187136317Y-115526269D01*
X187136326Y-115526265D01*
X187342482Y-115430134D01*
X187528820Y-115299657D01*
X187689657Y-115138820D01*
X187820134Y-114952482D01*
X187916265Y-114746326D01*
X187916269Y-114746317D01*
X187968872Y-114550000D01*
X187005686Y-114550000D01*
X187010080Y-114545606D01*
X187062741Y-114454394D01*
X187090000Y-114352661D01*
X187090000Y-114247339D01*
X187062741Y-114145606D01*
X187010080Y-114054394D01*
X187005686Y-114050000D01*
X187968872Y-114050000D01*
X187968872Y-114049999D01*
X187916269Y-113853682D01*
X187916265Y-113853673D01*
X187820134Y-113647517D01*
X187689657Y-113461179D01*
X187528820Y-113300342D01*
X187342482Y-113169865D01*
X187136328Y-113073734D01*
X186940000Y-113021127D01*
X186940000Y-113984314D01*
X186935606Y-113979920D01*
X186844394Y-113927259D01*
X186742661Y-113900000D01*
X186637339Y-113900000D01*
X186535606Y-113927259D01*
X186444394Y-113979920D01*
X186440000Y-113984314D01*
X186440000Y-113021127D01*
X186243671Y-113073734D01*
X186037517Y-113169865D01*
X185851179Y-113300342D01*
X185690342Y-113461179D01*
X185559865Y-113647517D01*
X185463734Y-113853673D01*
X185463730Y-113853682D01*
X185411127Y-114049999D01*
X182888872Y-114049999D01*
X182836269Y-113853682D01*
X182836265Y-113853673D01*
X182740134Y-113647517D01*
X182609657Y-113461179D01*
X182448820Y-113300342D01*
X182262482Y-113169865D01*
X182056328Y-113073734D01*
X181860000Y-113021127D01*
X181860000Y-113984314D01*
X181855606Y-113979920D01*
X181764394Y-113927259D01*
X181662661Y-113900000D01*
X181557339Y-113900000D01*
X181455606Y-113927259D01*
X181364394Y-113979920D01*
X181360000Y-113984314D01*
X181360000Y-113021127D01*
X181163671Y-113073734D01*
X180957517Y-113169865D01*
X180771179Y-113300342D01*
X180610342Y-113461179D01*
X180479865Y-113647517D01*
X180383734Y-113853673D01*
X180383730Y-113853682D01*
X180331127Y-114049999D01*
X178300500Y-114049999D01*
X178300500Y-102224500D01*
X178320185Y-102157461D01*
X178372989Y-102111706D01*
X178424500Y-102100500D01*
X188605500Y-102100500D01*
X188672539Y-102120185D01*
G37*
%TD.AperFunction*%
%TD*%
M02*
