%TF.GenerationSoftware,KiCad,Pcbnew,8.0.1*%
%TF.CreationDate,2025-06-29T19:13:09+00:00*%
%TF.ProjectId,Prezenter,5072657a-656e-4746-9572-2e6b69636164,rev?*%
%TF.SameCoordinates,Original*%
%TF.FileFunction,Legend,Top*%
%TF.FilePolarity,Positive*%
%FSLAX46Y46*%
G04 Gerber Fmt 4.6, Leading zero omitted, Abs format (unit mm)*
G04 Created by KiCad (PCBNEW 8.0.1) date 2025-06-29 19:13:09*
%MOMM*%
%LPD*%
G01*
G04 APERTURE LIST*
%ADD10C,0.150000*%
%ADD11C,0.100000*%
%ADD12C,0.120000*%
G04 APERTURE END LIST*
D10*
X201998095Y-167119819D02*
X201998095Y-167929342D01*
X201998095Y-167929342D02*
X202045714Y-168024580D01*
X202045714Y-168024580D02*
X202093333Y-168072200D01*
X202093333Y-168072200D02*
X202188571Y-168119819D01*
X202188571Y-168119819D02*
X202379047Y-168119819D01*
X202379047Y-168119819D02*
X202474285Y-168072200D01*
X202474285Y-168072200D02*
X202521904Y-168024580D01*
X202521904Y-168024580D02*
X202569523Y-167929342D01*
X202569523Y-167929342D02*
X202569523Y-167119819D01*
X203569523Y-168119819D02*
X202998095Y-168119819D01*
X203283809Y-168119819D02*
X203283809Y-167119819D01*
X203283809Y-167119819D02*
X203188571Y-167262676D01*
X203188571Y-167262676D02*
X203093333Y-167357914D01*
X203093333Y-167357914D02*
X202998095Y-167405533D01*
D11*
X187134667Y-129681800D02*
X187277524Y-129729419D01*
X187277524Y-129729419D02*
X187515619Y-129729419D01*
X187515619Y-129729419D02*
X187610857Y-129681800D01*
X187610857Y-129681800D02*
X187658476Y-129634180D01*
X187658476Y-129634180D02*
X187706095Y-129538942D01*
X187706095Y-129538942D02*
X187706095Y-129443704D01*
X187706095Y-129443704D02*
X187658476Y-129348466D01*
X187658476Y-129348466D02*
X187610857Y-129300847D01*
X187610857Y-129300847D02*
X187515619Y-129253228D01*
X187515619Y-129253228D02*
X187325143Y-129205609D01*
X187325143Y-129205609D02*
X187229905Y-129157990D01*
X187229905Y-129157990D02*
X187182286Y-129110371D01*
X187182286Y-129110371D02*
X187134667Y-129015133D01*
X187134667Y-129015133D02*
X187134667Y-128919895D01*
X187134667Y-128919895D02*
X187182286Y-128824657D01*
X187182286Y-128824657D02*
X187229905Y-128777038D01*
X187229905Y-128777038D02*
X187325143Y-128729419D01*
X187325143Y-128729419D02*
X187563238Y-128729419D01*
X187563238Y-128729419D02*
X187706095Y-128777038D01*
X188039429Y-128729419D02*
X188277524Y-129729419D01*
X188277524Y-129729419D02*
X188468000Y-129015133D01*
X188468000Y-129015133D02*
X188658476Y-129729419D01*
X188658476Y-129729419D02*
X188896572Y-128729419D01*
X189229905Y-128824657D02*
X189277524Y-128777038D01*
X189277524Y-128777038D02*
X189372762Y-128729419D01*
X189372762Y-128729419D02*
X189610857Y-128729419D01*
X189610857Y-128729419D02*
X189706095Y-128777038D01*
X189706095Y-128777038D02*
X189753714Y-128824657D01*
X189753714Y-128824657D02*
X189801333Y-128919895D01*
X189801333Y-128919895D02*
X189801333Y-129015133D01*
X189801333Y-129015133D02*
X189753714Y-129157990D01*
X189753714Y-129157990D02*
X189182286Y-129729419D01*
X189182286Y-129729419D02*
X189801333Y-129729419D01*
X203898667Y-129681800D02*
X204041524Y-129729419D01*
X204041524Y-129729419D02*
X204279619Y-129729419D01*
X204279619Y-129729419D02*
X204374857Y-129681800D01*
X204374857Y-129681800D02*
X204422476Y-129634180D01*
X204422476Y-129634180D02*
X204470095Y-129538942D01*
X204470095Y-129538942D02*
X204470095Y-129443704D01*
X204470095Y-129443704D02*
X204422476Y-129348466D01*
X204422476Y-129348466D02*
X204374857Y-129300847D01*
X204374857Y-129300847D02*
X204279619Y-129253228D01*
X204279619Y-129253228D02*
X204089143Y-129205609D01*
X204089143Y-129205609D02*
X203993905Y-129157990D01*
X203993905Y-129157990D02*
X203946286Y-129110371D01*
X203946286Y-129110371D02*
X203898667Y-129015133D01*
X203898667Y-129015133D02*
X203898667Y-128919895D01*
X203898667Y-128919895D02*
X203946286Y-128824657D01*
X203946286Y-128824657D02*
X203993905Y-128777038D01*
X203993905Y-128777038D02*
X204089143Y-128729419D01*
X204089143Y-128729419D02*
X204327238Y-128729419D01*
X204327238Y-128729419D02*
X204470095Y-128777038D01*
X204803429Y-128729419D02*
X205041524Y-129729419D01*
X205041524Y-129729419D02*
X205232000Y-129015133D01*
X205232000Y-129015133D02*
X205422476Y-129729419D01*
X205422476Y-129729419D02*
X205660572Y-128729419D01*
X205946286Y-128729419D02*
X206565333Y-128729419D01*
X206565333Y-128729419D02*
X206232000Y-129110371D01*
X206232000Y-129110371D02*
X206374857Y-129110371D01*
X206374857Y-129110371D02*
X206470095Y-129157990D01*
X206470095Y-129157990D02*
X206517714Y-129205609D01*
X206517714Y-129205609D02*
X206565333Y-129300847D01*
X206565333Y-129300847D02*
X206565333Y-129538942D01*
X206565333Y-129538942D02*
X206517714Y-129634180D01*
X206517714Y-129634180D02*
X206470095Y-129681800D01*
X206470095Y-129681800D02*
X206374857Y-129729419D01*
X206374857Y-129729419D02*
X206089143Y-129729419D01*
X206089143Y-129729419D02*
X205993905Y-129681800D01*
X205993905Y-129681800D02*
X205946286Y-129634180D01*
D10*
X206364819Y-119546666D02*
X205888628Y-119879999D01*
X206364819Y-120118094D02*
X205364819Y-120118094D01*
X205364819Y-120118094D02*
X205364819Y-119737142D01*
X205364819Y-119737142D02*
X205412438Y-119641904D01*
X205412438Y-119641904D02*
X205460057Y-119594285D01*
X205460057Y-119594285D02*
X205555295Y-119546666D01*
X205555295Y-119546666D02*
X205698152Y-119546666D01*
X205698152Y-119546666D02*
X205793390Y-119594285D01*
X205793390Y-119594285D02*
X205841009Y-119641904D01*
X205841009Y-119641904D02*
X205888628Y-119737142D01*
X205888628Y-119737142D02*
X205888628Y-120118094D01*
X205460057Y-119165713D02*
X205412438Y-119118094D01*
X205412438Y-119118094D02*
X205364819Y-119022856D01*
X205364819Y-119022856D02*
X205364819Y-118784761D01*
X205364819Y-118784761D02*
X205412438Y-118689523D01*
X205412438Y-118689523D02*
X205460057Y-118641904D01*
X205460057Y-118641904D02*
X205555295Y-118594285D01*
X205555295Y-118594285D02*
X205650533Y-118594285D01*
X205650533Y-118594285D02*
X205793390Y-118641904D01*
X205793390Y-118641904D02*
X206364819Y-119213332D01*
X206364819Y-119213332D02*
X206364819Y-118594285D01*
D11*
X195643667Y-108994800D02*
X195786524Y-109042419D01*
X195786524Y-109042419D02*
X196024619Y-109042419D01*
X196024619Y-109042419D02*
X196119857Y-108994800D01*
X196119857Y-108994800D02*
X196167476Y-108947180D01*
X196167476Y-108947180D02*
X196215095Y-108851942D01*
X196215095Y-108851942D02*
X196215095Y-108756704D01*
X196215095Y-108756704D02*
X196167476Y-108661466D01*
X196167476Y-108661466D02*
X196119857Y-108613847D01*
X196119857Y-108613847D02*
X196024619Y-108566228D01*
X196024619Y-108566228D02*
X195834143Y-108518609D01*
X195834143Y-108518609D02*
X195738905Y-108470990D01*
X195738905Y-108470990D02*
X195691286Y-108423371D01*
X195691286Y-108423371D02*
X195643667Y-108328133D01*
X195643667Y-108328133D02*
X195643667Y-108232895D01*
X195643667Y-108232895D02*
X195691286Y-108137657D01*
X195691286Y-108137657D02*
X195738905Y-108090038D01*
X195738905Y-108090038D02*
X195834143Y-108042419D01*
X195834143Y-108042419D02*
X196072238Y-108042419D01*
X196072238Y-108042419D02*
X196215095Y-108090038D01*
X196548429Y-108042419D02*
X196786524Y-109042419D01*
X196786524Y-109042419D02*
X196977000Y-108328133D01*
X196977000Y-108328133D02*
X197167476Y-109042419D01*
X197167476Y-109042419D02*
X197405572Y-108042419D01*
X198310333Y-109042419D02*
X197738905Y-109042419D01*
X198024619Y-109042419D02*
X198024619Y-108042419D01*
X198024619Y-108042419D02*
X197929381Y-108185276D01*
X197929381Y-108185276D02*
X197834143Y-108280514D01*
X197834143Y-108280514D02*
X197738905Y-108328133D01*
D10*
X196683333Y-129189819D02*
X196350000Y-128713628D01*
X196111905Y-129189819D02*
X196111905Y-128189819D01*
X196111905Y-128189819D02*
X196492857Y-128189819D01*
X196492857Y-128189819D02*
X196588095Y-128237438D01*
X196588095Y-128237438D02*
X196635714Y-128285057D01*
X196635714Y-128285057D02*
X196683333Y-128380295D01*
X196683333Y-128380295D02*
X196683333Y-128523152D01*
X196683333Y-128523152D02*
X196635714Y-128618390D01*
X196635714Y-128618390D02*
X196588095Y-128666009D01*
X196588095Y-128666009D02*
X196492857Y-128713628D01*
X196492857Y-128713628D02*
X196111905Y-128713628D01*
X197635714Y-129189819D02*
X197064286Y-129189819D01*
X197350000Y-129189819D02*
X197350000Y-128189819D01*
X197350000Y-128189819D02*
X197254762Y-128332676D01*
X197254762Y-128332676D02*
X197159524Y-128427914D01*
X197159524Y-128427914D02*
X197064286Y-128475533D01*
X210486666Y-160954819D02*
X210486666Y-161669104D01*
X210486666Y-161669104D02*
X210439047Y-161811961D01*
X210439047Y-161811961D02*
X210343809Y-161907200D01*
X210343809Y-161907200D02*
X210200952Y-161954819D01*
X210200952Y-161954819D02*
X210105714Y-161954819D01*
X210867619Y-160954819D02*
X211486666Y-160954819D01*
X211486666Y-160954819D02*
X211153333Y-161335771D01*
X211153333Y-161335771D02*
X211296190Y-161335771D01*
X211296190Y-161335771D02*
X211391428Y-161383390D01*
X211391428Y-161383390D02*
X211439047Y-161431009D01*
X211439047Y-161431009D02*
X211486666Y-161526247D01*
X211486666Y-161526247D02*
X211486666Y-161764342D01*
X211486666Y-161764342D02*
X211439047Y-161859580D01*
X211439047Y-161859580D02*
X211391428Y-161907200D01*
X211391428Y-161907200D02*
X211296190Y-161954819D01*
X211296190Y-161954819D02*
X211010476Y-161954819D01*
X211010476Y-161954819D02*
X210915238Y-161907200D01*
X210915238Y-161907200D02*
X210867619Y-161859580D01*
X184774819Y-119546666D02*
X184298628Y-119879999D01*
X184774819Y-120118094D02*
X183774819Y-120118094D01*
X183774819Y-120118094D02*
X183774819Y-119737142D01*
X183774819Y-119737142D02*
X183822438Y-119641904D01*
X183822438Y-119641904D02*
X183870057Y-119594285D01*
X183870057Y-119594285D02*
X183965295Y-119546666D01*
X183965295Y-119546666D02*
X184108152Y-119546666D01*
X184108152Y-119546666D02*
X184203390Y-119594285D01*
X184203390Y-119594285D02*
X184251009Y-119641904D01*
X184251009Y-119641904D02*
X184298628Y-119737142D01*
X184298628Y-119737142D02*
X184298628Y-120118094D01*
X184108152Y-118689523D02*
X184774819Y-118689523D01*
X183727200Y-118927618D02*
X184441485Y-119165713D01*
X184441485Y-119165713D02*
X184441485Y-118546666D01*
X211444819Y-119546666D02*
X210968628Y-119879999D01*
X211444819Y-120118094D02*
X210444819Y-120118094D01*
X210444819Y-120118094D02*
X210444819Y-119737142D01*
X210444819Y-119737142D02*
X210492438Y-119641904D01*
X210492438Y-119641904D02*
X210540057Y-119594285D01*
X210540057Y-119594285D02*
X210635295Y-119546666D01*
X210635295Y-119546666D02*
X210778152Y-119546666D01*
X210778152Y-119546666D02*
X210873390Y-119594285D01*
X210873390Y-119594285D02*
X210921009Y-119641904D01*
X210921009Y-119641904D02*
X210968628Y-119737142D01*
X210968628Y-119737142D02*
X210968628Y-120118094D01*
X210444819Y-119213332D02*
X210444819Y-118594285D01*
X210444819Y-118594285D02*
X210825771Y-118927618D01*
X210825771Y-118927618D02*
X210825771Y-118784761D01*
X210825771Y-118784761D02*
X210873390Y-118689523D01*
X210873390Y-118689523D02*
X210921009Y-118641904D01*
X210921009Y-118641904D02*
X211016247Y-118594285D01*
X211016247Y-118594285D02*
X211254342Y-118594285D01*
X211254342Y-118594285D02*
X211349580Y-118641904D01*
X211349580Y-118641904D02*
X211397200Y-118689523D01*
X211397200Y-118689523D02*
X211444819Y-118784761D01*
X211444819Y-118784761D02*
X211444819Y-119070475D01*
X211444819Y-119070475D02*
X211397200Y-119165713D01*
X211397200Y-119165713D02*
X211349580Y-119213332D01*
X179694819Y-119546666D02*
X179218628Y-119879999D01*
X179694819Y-120118094D02*
X178694819Y-120118094D01*
X178694819Y-120118094D02*
X178694819Y-119737142D01*
X178694819Y-119737142D02*
X178742438Y-119641904D01*
X178742438Y-119641904D02*
X178790057Y-119594285D01*
X178790057Y-119594285D02*
X178885295Y-119546666D01*
X178885295Y-119546666D02*
X179028152Y-119546666D01*
X179028152Y-119546666D02*
X179123390Y-119594285D01*
X179123390Y-119594285D02*
X179171009Y-119641904D01*
X179171009Y-119641904D02*
X179218628Y-119737142D01*
X179218628Y-119737142D02*
X179218628Y-120118094D01*
X178694819Y-118641904D02*
X178694819Y-119118094D01*
X178694819Y-119118094D02*
X179171009Y-119165713D01*
X179171009Y-119165713D02*
X179123390Y-119118094D01*
X179123390Y-119118094D02*
X179075771Y-119022856D01*
X179075771Y-119022856D02*
X179075771Y-118784761D01*
X179075771Y-118784761D02*
X179123390Y-118689523D01*
X179123390Y-118689523D02*
X179171009Y-118641904D01*
X179171009Y-118641904D02*
X179266247Y-118594285D01*
X179266247Y-118594285D02*
X179504342Y-118594285D01*
X179504342Y-118594285D02*
X179599580Y-118641904D01*
X179599580Y-118641904D02*
X179647200Y-118689523D01*
X179647200Y-118689523D02*
X179694819Y-118784761D01*
X179694819Y-118784761D02*
X179694819Y-119022856D01*
X179694819Y-119022856D02*
X179647200Y-119118094D01*
X179647200Y-119118094D02*
X179599580Y-119165713D01*
X210486666Y-146349819D02*
X210486666Y-147064104D01*
X210486666Y-147064104D02*
X210439047Y-147206961D01*
X210439047Y-147206961D02*
X210343809Y-147302200D01*
X210343809Y-147302200D02*
X210200952Y-147349819D01*
X210200952Y-147349819D02*
X210105714Y-147349819D01*
X210915238Y-146445057D02*
X210962857Y-146397438D01*
X210962857Y-146397438D02*
X211058095Y-146349819D01*
X211058095Y-146349819D02*
X211296190Y-146349819D01*
X211296190Y-146349819D02*
X211391428Y-146397438D01*
X211391428Y-146397438D02*
X211439047Y-146445057D01*
X211439047Y-146445057D02*
X211486666Y-146540295D01*
X211486666Y-146540295D02*
X211486666Y-146635533D01*
X211486666Y-146635533D02*
X211439047Y-146778390D01*
X211439047Y-146778390D02*
X210867619Y-147349819D01*
X210867619Y-147349819D02*
X211486666Y-147349819D01*
X207314819Y-106783094D02*
X206314819Y-106783094D01*
X206314819Y-106783094D02*
X206314819Y-106544999D01*
X206314819Y-106544999D02*
X206362438Y-106402142D01*
X206362438Y-106402142D02*
X206457676Y-106306904D01*
X206457676Y-106306904D02*
X206552914Y-106259285D01*
X206552914Y-106259285D02*
X206743390Y-106211666D01*
X206743390Y-106211666D02*
X206886247Y-106211666D01*
X206886247Y-106211666D02*
X207076723Y-106259285D01*
X207076723Y-106259285D02*
X207171961Y-106306904D01*
X207171961Y-106306904D02*
X207267200Y-106402142D01*
X207267200Y-106402142D02*
X207314819Y-106544999D01*
X207314819Y-106544999D02*
X207314819Y-106783094D01*
X207314819Y-105259285D02*
X207314819Y-105830713D01*
X207314819Y-105544999D02*
X206314819Y-105544999D01*
X206314819Y-105544999D02*
X206457676Y-105640237D01*
X206457676Y-105640237D02*
X206552914Y-105735475D01*
X206552914Y-105735475D02*
X206600533Y-105830713D01*
X181911666Y-109734819D02*
X181911666Y-110449104D01*
X181911666Y-110449104D02*
X181864047Y-110591961D01*
X181864047Y-110591961D02*
X181768809Y-110687200D01*
X181768809Y-110687200D02*
X181625952Y-110734819D01*
X181625952Y-110734819D02*
X181530714Y-110734819D01*
X182911666Y-110734819D02*
X182340238Y-110734819D01*
X182625952Y-110734819D02*
X182625952Y-109734819D01*
X182625952Y-109734819D02*
X182530714Y-109877676D01*
X182530714Y-109877676D02*
X182435476Y-109972914D01*
X182435476Y-109972914D02*
X182340238Y-110020533D01*
D12*
%TO.C,U1*%
X178470000Y-147935000D02*
X184885000Y-147935000D01*
X178470000Y-166175000D02*
X178470000Y-147935000D01*
X178470000Y-166175000D02*
X184630000Y-166175000D01*
X203430000Y-147935000D02*
X204210000Y-147935000D01*
X203430000Y-166175000D02*
X204210000Y-166175000D01*
X204210000Y-147935000D02*
X204210000Y-148935000D01*
X204210000Y-166175000D02*
X204210000Y-165175000D01*
X185355000Y-166680000D02*
X184855000Y-166180000D01*
X185355000Y-166180000D01*
X185355000Y-166680000D01*
G36*
X185355000Y-166680000D02*
G01*
X184855000Y-166180000D01*
X185355000Y-166180000D01*
X185355000Y-166680000D01*
G37*
D11*
%TO.C,SW2*%
X182468000Y-130772000D02*
X194468000Y-130772000D01*
X182468000Y-132272000D02*
X182468000Y-130772000D01*
X182468000Y-136022000D02*
X182468000Y-137522000D01*
X182468000Y-142772000D02*
X182468000Y-141272000D01*
X182468000Y-142772000D02*
X194468000Y-142772000D01*
X194468000Y-130772000D02*
X194468000Y-132272000D01*
X194468000Y-136022000D02*
X194468000Y-137522000D01*
X194468000Y-142772000D02*
X194468000Y-141272000D01*
%TO.C,SW3*%
X199232000Y-130772000D02*
X211232000Y-130772000D01*
X199232000Y-132272000D02*
X199232000Y-130772000D01*
X199232000Y-136022000D02*
X199232000Y-137522000D01*
X199232000Y-142772000D02*
X199232000Y-141272000D01*
X199232000Y-142772000D02*
X211232000Y-142772000D01*
X211232000Y-130772000D02*
X211232000Y-132272000D01*
X211232000Y-136022000D02*
X211232000Y-137522000D01*
X211232000Y-142772000D02*
X211232000Y-141272000D01*
D12*
%TO.C,R2*%
X206910000Y-116110000D02*
X206910000Y-122650000D01*
X206910000Y-122650000D02*
X209650000Y-122650000D01*
X208280000Y-115340000D02*
X208280000Y-116110000D01*
X208280000Y-123420000D02*
X208280000Y-122650000D01*
X209650000Y-116110000D02*
X206910000Y-116110000D01*
X209650000Y-122650000D02*
X209650000Y-116110000D01*
D11*
%TO.C,SW1*%
X190912000Y-109316000D02*
X202912000Y-109316000D01*
X190912000Y-110816000D02*
X190912000Y-109316000D01*
X190912000Y-114566000D02*
X190912000Y-116066000D01*
X190912000Y-121316000D02*
X190912000Y-119816000D01*
X190912000Y-121316000D02*
X202912000Y-121316000D01*
X202912000Y-109316000D02*
X202912000Y-110816000D01*
X202912000Y-114566000D02*
X202912000Y-116066000D01*
X202912000Y-121316000D02*
X202912000Y-119816000D01*
D12*
%TO.C,R1*%
X192810000Y-126365000D02*
X193580000Y-126365000D01*
X193580000Y-124995000D02*
X193580000Y-127735000D01*
X193580000Y-127735000D02*
X200120000Y-127735000D01*
X200120000Y-124995000D02*
X193580000Y-124995000D01*
X200120000Y-127735000D02*
X200120000Y-124995000D01*
X200890000Y-126365000D02*
X200120000Y-126365000D01*
%TO.C,J3*%
X209490000Y-162500000D02*
X210820000Y-162500000D01*
X209490000Y-163830000D02*
X209490000Y-162500000D01*
X209490000Y-165100000D02*
X209490000Y-167700000D01*
X209490000Y-165100000D02*
X212150000Y-165100000D01*
X209490000Y-167700000D02*
X212150000Y-167700000D01*
X212150000Y-165100000D02*
X212150000Y-167700000D01*
%TO.C,R4*%
X185320000Y-116110000D02*
X185320000Y-122650000D01*
X185320000Y-122650000D02*
X188060000Y-122650000D01*
X186690000Y-115340000D02*
X186690000Y-116110000D01*
X186690000Y-123420000D02*
X186690000Y-122650000D01*
X188060000Y-116110000D02*
X185320000Y-116110000D01*
X188060000Y-122650000D02*
X188060000Y-116110000D01*
%TO.C,R3*%
X211990000Y-116110000D02*
X211990000Y-122650000D01*
X211990000Y-122650000D02*
X214730000Y-122650000D01*
X213360000Y-115340000D02*
X213360000Y-116110000D01*
X213360000Y-123420000D02*
X213360000Y-122650000D01*
X214730000Y-116110000D02*
X211990000Y-116110000D01*
X214730000Y-122650000D02*
X214730000Y-116110000D01*
%TO.C,R5*%
X180240000Y-116110000D02*
X180240000Y-122650000D01*
X180240000Y-122650000D02*
X182980000Y-122650000D01*
X181610000Y-115340000D02*
X181610000Y-116110000D01*
X181610000Y-123420000D02*
X181610000Y-122650000D01*
X182980000Y-116110000D02*
X180240000Y-116110000D01*
X182980000Y-122650000D02*
X182980000Y-116110000D01*
%TO.C,J2*%
X209490000Y-147895000D02*
X210820000Y-147895000D01*
X209490000Y-149225000D02*
X209490000Y-147895000D01*
X209490000Y-150495000D02*
X209490000Y-158175000D01*
X209490000Y-150495000D02*
X212150000Y-150495000D01*
X209490000Y-158175000D02*
X212150000Y-158175000D01*
X212150000Y-150495000D02*
X212150000Y-158175000D01*
%TO.C,D1*%
X209275000Y-108605000D02*
X212365000Y-108605000D01*
X209275170Y-108604999D02*
G75*
G02*
X210820462Y-103055001I1544830J2559999D01*
G01*
X210819538Y-103055000D02*
G75*
G02*
X212364830Y-108605000I462J-2990000D01*
G01*
X213320000Y-106045000D02*
G75*
G02*
X208320000Y-106045000I-2500000J0D01*
G01*
X208320000Y-106045000D02*
G75*
G02*
X213320000Y-106045000I2500000J0D01*
G01*
%TO.C,J1*%
X180915000Y-106680000D02*
X180915000Y-104080000D01*
X183575000Y-104080000D02*
X180915000Y-104080000D01*
X183575000Y-106680000D02*
X180915000Y-106680000D01*
X183575000Y-106680000D02*
X183575000Y-104080000D01*
X183575000Y-107950000D02*
X183575000Y-109280000D01*
X183575000Y-109280000D02*
X182245000Y-109280000D01*
%TD*%
M02*
